<svg width="291" height="69" viewBox="0 0 291 69" fill="none" xmlns="http://www.w3.org/2000/svg">
<path d="M254.202 24.9087C266.013 24.7953 276.583 23.0997 285.952 16.4794C286.948 15.7763 288.477 15.8549 289.765 15.5669C289.977 17.0202 290.623 18.5888 290.286 19.8988C288.983 25.0654 284.623 27.5082 280.343 28.9907C270.202 32.4986 259.867 35.5773 248.867 32.5819C247.745 32.2766 245.933 32.9646 245.014 33.8238C239.067 39.3321 231.97 42.3073 224.251 44.1792C217.658 45.7756 211.206 48.1212 204.534 49.1042C200.25 49.7281 195.698 48.4383 191.261 48.0913C189.861 47.9829 188.26 47.7138 187.064 48.2562C176.537 52.9586 165.273 54.3424 154.041 55.4093C147.155 56.0552 140.119 55.0713 133.156 55.1146C131.136 55.1299 128.976 55.8462 127.143 56.7715C115.112 62.8533 102.257 66.0646 88.9954 67.5387C82.3313 68.2749 75.5501 68.3587 68.8385 68.1646C66.2668 68.0928 63.4355 66.8425 61.2494 65.342C58.9396 63.7479 56.8647 63.6149 54.2244 63.6758C40.1443 63.9857 26.0487 63.9632 11.9627 64.0061C9.98535 64.0151 7.97782 63.8165 6.01294 63.5336C0.892859 62.7952 -0.98389 59.7209 0.484473 53.7268C17.8831 57.1069 35.4691 57.5473 53.5761 55.602C53.0748 52.1599 52.3848 49.1583 52.2533 46.1422C51.9225 38.8144 54.7438 33.2035 61.7493 30.5093C68.443 27.9387 75.1407 25.2447 82.5817 26.0691C90.7818 26.9727 94.3435 33.5398 91.0878 41.3007C87.9463 48.7884 81.5616 52.5749 75.2019 56.4583C73.7474 57.3397 72.1471 57.9745 70.67 59.6068C72.8466 59.7584 75.0665 60.2832 77.1886 59.9853C87.1872 58.596 97.2436 57.3768 107.106 55.282C112.908 54.0576 118.427 51.4237 123.967 49.155C124.848 48.7923 125.866 46.8699 125.635 45.9662C122.443 33.1074 127.02 26.5712 136.998 19.2261C141.921 15.5965 153.196 21.3862 153.854 27.4836C154.007 28.912 154.224 30.3309 154.496 31.742C155.787 38.4167 151.73 42.1098 147.136 45.5128C146.51 45.9721 145.885 46.4315 145.44 47.7571C148.89 47.4444 152.389 47.3923 155.784 46.7751C163.356 45.4044 170.865 43.6748 178.441 42.2589C181.662 41.6559 182.491 39.9506 181.965 36.8692C180.5 28.2447 183.371 21.0867 190.027 15.8434C192.837 13.6264 196.527 11.3371 199.87 11.2741C205.594 11.177 211.721 19.0555 206.556 26.0791C203.233 30.5913 200.047 35.2065 196.608 40.0481C197.45 40.3161 198.435 40.9649 199.307 40.838C211.592 39.1491 223.673 36.6641 234.509 30.1538C237.682 28.241 239.142 25.9639 237.69 21.578C235.593 15.2551 237.256 9.08751 241.413 3.81765C245.905 -1.86924 253.236 -1.11814 256.323 5.50705C259.938 13.2716 260.549 15.2023 254.214 24.9181L254.202 24.9087ZM63.5044 52.0693C66.3479 50.7624 69.0506 49.9224 71.313 48.3989C75.4283 45.6347 79.9497 43.1685 81.3079 37.6255C82.073 34.5012 80.8016 33.4701 78.1018 33.9526C75.5635 34.4115 73.1182 35.3591 70.6085 36.0147C62.6321 38.0803 60.4278 41.4366 63.5151 52.0677L63.5044 52.0693ZM135.185 43.158C137.705 41.1395 139.78 39.3086 142.033 37.7195C145.144 35.5367 144.91 32.491 143.992 29.5114C143.762 28.7637 141.56 27.8346 140.763 28.1739C136.017 30.2266 133.404 36.9676 135.185 43.158Z" fill="#D95275"/>
</svg>
