<svg width="25" height="22" viewBox="0 0 25 22" fill="none" xmlns="http://www.w3.org/2000/svg">
<path d="M0 10.6168C0 10.0863 0.210714 9.57764 0.585787 9.20256C0.960859 8.82749 1.46957 8.61678 2 8.61678H17.84L12.5867 3.36344C12.2334 2.98431 12.0411 2.48285 12.0502 1.96472C12.0593 1.44658 12.2692 0.952221 12.6357 0.585787C13.0021 0.219352 13.4965 0.0094535 14.0146 0.000311592C14.5327 -0.00883032 15.0342 0.183498 15.4133 0.536778L24.08 9.20344C24.4545 9.57844 24.6649 10.0868 24.6649 10.6168C24.6649 11.1468 24.4545 11.6551 24.08 12.0301L15.4133 20.6968C15.0342 21.0501 14.5327 21.2424 14.0146 21.2332C13.4965 21.2241 13.0021 21.0142 12.6357 20.6478C12.2692 20.2813 12.0593 19.787 12.0502 19.2688C12.0411 18.7507 12.2334 18.2492 12.5867 17.8701L17.84 12.6168H2C1.46957 12.6168 0.960859 12.4061 0.585787 12.031C0.210714 11.6559 0 11.1472 0 10.6168Z" fill="white"/>
</svg>
