<svg width="634" height="47" viewBox="0 0 634 47" fill="none" xmlns="http://www.w3.org/2000/svg">
<path d="M505.552 5.86171e-06C507.164 0.00763566 507.519 0.267647 507.651 0.269537C509.432 0.281937 508.762 0.0508444 509.204 0.0595762C511.478 0.107363 513.146 0.685355 516.304 0.0771543C516.22 0.29943 516.136 0.52187 516.053 0.744146C518.466 0.841441 516.867 0.27144 517.357 0.159186C517.553 0.117557 522.735 0.131134 523.158 0.136725C524.563 0.15875 524.601 0.452505 524.723 0.455084C525.044 0.460649 528.446 0.0882033 530.314 0.323248C532.473 0.602656 529.944 1.22976 530.48 1.33594C530.576 1.35377 532.818 1.26754 533.116 1.45118C533.45 1.64886 531.517 1.66679 531.546 1.75098C531.574 1.8087 534.776 2.18692 534.166 2.47364C533.698 2.7596 529.29 2.45055 528.378 2.59278C528.229 2.61633 528.514 2.95942 528.382 2.97364C527.898 3.02601 517.81 3.15116 517.396 3.09864C517.913 2.93514 518.429 2.77188 518.943 2.6084C518.257 2.60024 517.568 2.59211 516.876 2.58399C517.858 2.44657 518.835 2.30922 519.806 2.17188C518.358 0.89017 513.949 2.25625 513.765 2.90626C513.692 3.20695 516.414 3.94668 513.892 4.42383C514.278 4.49636 514.663 4.56907 515.047 4.64161C515.836 4.50637 516.622 4.37151 517.404 4.23633C516.882 4.16258 516.357 4.08838 515.831 4.01465C516.023 3.92241 516.216 3.83053 516.407 3.73829C517.878 3.57722 519.325 3.41588 520.78 3.25489C521.549 3.31281 521.393 3.58056 521.92 3.62598C528.441 4.19932 524.199 3.42351 528.402 3.49415C528.986 3.63022 529.628 3.76563 530.238 3.90137C530.015 3.31387 531.933 3.66179 534.186 3.38087C533.918 3.57508 533.65 3.76965 533.382 3.96387C536.592 3.82508 543.386 4.70884 541.545 3.67579C542.296 3.75697 543.043 3.8377 543.783 3.91895C544.393 3.73919 545.056 3.55913 545.7 3.37891C546.596 3.38793 547.483 3.39713 548.362 3.40626C548.367 3.49954 548.373 3.59325 548.378 3.68653C547.677 3.69557 546.971 3.70379 546.26 3.7129C546.797 3.99097 547.332 4.26974 547.863 4.54786C548.382 4.49435 548.898 4.44019 549.41 4.38672C547.247 4.14386 550.093 3.67001 550.762 3.28614C551.091 3.25659 551.399 3.24835 551.684 3.25489C553.023 3.28305 553.906 3.60063 554.411 3.61231C554.717 3.61841 558.063 2.71727 556.759 3.67872C558.435 3.54291 560.282 3.40465 562.015 3.26758C562.698 3.33131 563.374 3.39518 564.044 3.45899C562.6 3.91812 566.803 4.39348 563.714 4.61622C561.386 4.78318 560.775 4.38021 559.634 4.39747C558.585 4.41279 558.078 4.69571 556.995 4.72169C555.202 4.76336 553.447 4.79644 551.702 4.82227C546.606 4.89833 541.843 4.9037 536.473 4.87403C535.108 4.86533 533.852 5.01599 532.917 5.00782C531.86 4.99813 533.182 4.63509 531.833 4.73536C530.413 4.84126 530.102 5.12845 529.725 5.13868C529.488 5.14462 528.735 4.89774 528.077 4.90528C525.35 4.93671 521.227 5.2312 520.819 5.23438C520.396 5.23641 512.542 5.09403 512.128 5.05665C511.926 5.03525 512.328 4.08933 510.627 5.11329C510.092 5.13795 509.555 5.16282 509.018 5.18751C509.103 4.99814 509.188 4.80851 509.272 4.61915C506.085 5.36908 507.185 4.95704 504.07 5.04786C496.733 5.26466 485.729 5.22691 477.689 5.38184C475.874 5.41706 475.177 5.65092 473.059 5.69044C471.091 5.72633 465.876 5.11037 467.018 6.03028C462.579 5.27164 461.912 6.67105 459.684 5.82715C459.417 5.95638 459.151 6.08562 458.884 6.21485C456.472 5.69925 455.723 6.18397 453.118 6.27833C451.992 6.31923 453.285 5.72848 451.016 6.39551C450.58 6.35255 450.144 6.30956 449.708 6.26661C449.808 6.12608 449.907 5.98526 450.007 5.84473C447.474 5.98677 447.306 5.91599 447.603 6.43458C446.374 6.3531 445.147 6.27202 443.931 6.19044C443.781 6.36348 443.631 6.53692 443.481 6.70997C444.068 7.03005 471.845 6.23113 475.673 6.03223C480.242 6.36996 489.342 5.78504 492.976 5.83692C494.413 5.85812 495.104 6.23781 497.241 6.26075C499.384 6.28357 502.041 5.90204 503.159 5.87696C506.998 5.79095 524.908 5.66628 512.686 6.28614C513.043 6.47105 513.399 6.65688 513.755 6.8418C518.616 6.14223 516.857 6.55862 520.84 6.58008C522.572 6.58883 526.581 6.12128 526.363 6.98145C523.248 7.17694 519.843 6.94169 517.156 6.98438C516.891 6.98876 513.651 7.41749 511.959 7.33008C510.474 7.24953 511.497 6.41907 508.256 7.37403C505.824 6.50398 504.41 7.33394 503.763 7.42774C502.64 7.5903 502.538 7.14871 501.435 7.10938C500.238 7.06572 499.411 7.36833 499.247 7.37208C497.584 7.39725 488.98 7.53262 488.581 7.3584C488.927 7.27606 489.273 7.19367 489.618 7.11133C487.379 7.00971 487.849 7.45777 487.26 7.51856C486.82 7.52176 486.378 7.52413 485.937 7.52735C486.11 7.43155 486.284 7.33604 486.458 7.24024C483.796 7.28956 485.825 7.59349 482.096 7.62598C479.726 7.6463 477.248 7.31468 477.016 7.34376C476.947 7.35216 477.704 7.58576 476.728 7.62891C475.091 7.70016 472.357 7.72381 472.035 7.39844C471.251 7.45359 471.321 7.77439 471.217 7.78321C470.767 7.81953 462.88 8.01645 461.489 8.05079C457.583 8.14604 453.24 8.12474 449.012 8.22559C448.577 8.23568 448.852 8.02674 448.416 8.03809C447.713 8.05642 444.119 8.4195 443.59 8.44825C442.257 8.51905 438.733 8.43021 438.178 8.53028C438.099 8.54447 439.263 8.81052 437.906 8.91212C436.399 9.02453 437.207 8.64054 437.125 8.6377C434.05 8.54343 432.139 8.82467 430.045 8.89844C429.368 8.92205 428.114 8.65401 427.157 8.74805C427.047 8.75876 427.268 9.01694 427.16 9.03126C425.713 9.18438 424.357 8.71484 423.733 8.69044C422.207 8.63091 423.04 8.97927 422.962 8.9834C421.944 9.00621 420.572 8.89228 419.022 8.92676C412.11 9.08054 406.479 9.16626 399.135 9.22657C398.214 9.23426 397.118 8.99438 396.975 8.99512C396.539 9.00203 396.666 9.29784 395.406 9.30567C392.749 9.32103 390.281 9.36384 387.651 9.38868C387.122 9.39363 386.893 9.12144 386.489 9.12012C385.141 9.11865 380.517 9.89193 380.433 8.99805C377.751 9.8216 375.962 9.16025 373.802 9.19337C368.66 9.27129 360.636 9.52941 355.534 9.48926C354.461 9.48038 353.961 9.25688 353.355 9.25196C352.268 9.24249 346.134 9.44611 345.819 9.41407C345.184 9.35258 345.575 8.33812 342.323 9.25879C340.416 9.34542 340.637 8.92866 340.243 8.91114C337.171 8.78346 334.23 9.74605 334.771 8.89161C331.196 9.1675 328.882 9.66594 327.425 8.89258C327.443 9.27898 325.796 9.53268 323.764 9.41212C325.84 8.73526 325.542 8.32315 330.556 8.37696C330.634 8.37823 330.487 8.65926 330.566 8.66016C331.283 8.66978 332.778 8.50937 334.008 8.50879C335.221 8.50846 334.55 8.70805 335.034 8.69825C335.478 8.68877 335.46 8.42217 336.103 8.41016C338.187 8.37309 340.044 8.27571 341.24 8.25587C341.994 8.2436 342.843 8.46831 343.43 8.46094C345.678 8.43074 350.433 8.18751 353.323 8.17774C353.924 8.17636 353.677 8.44331 354.979 8.44922C355.131 8.44981 355.681 8.16764 356.822 8.09669C357.964 8.0257 358.853 8.15167 359.589 8.11426C360.203 8.08296 359.943 7.84212 361.205 7.81153C362.278 7.78581 374.146 7.82003 374.809 7.85157C375.736 7.89681 376.182 8.23505 376.748 8.18653C376.848 8.17575 377.012 7.84223 377.357 7.81446C383.061 7.35512 395.692 7.66092 402.209 7.58399C415.834 7.42376 428.405 7.08853 442.15 6.85938C442.394 6.799 442.639 6.73909 442.883 6.67872C441.497 6.69185 440.107 6.70456 438.716 6.71778C438.705 6.56191 438.694 6.40588 438.684 6.25001C436.802 6.24619 437.055 6.61295 437.11 6.83497C436.413 6.74822 435.709 6.66102 435.018 6.57422C434.428 7.12445 429.795 6.8142 427.398 6.8418C425.839 6.85924 423.995 7.08693 423.177 7.08008C421.448 7.06621 421.487 6.73086 421.352 6.72657C421.121 6.72154 418.706 7.0445 416.96 7.05274C414.377 7.06548 414.097 6.55395 410.573 7.03126C406.048 6.81521 401.036 7.00669 396.164 7.10645C397.087 6.61969 392.724 7.12034 390.752 7.13575C378.733 7.22801 363.957 7.20011 351.78 7.16212C350.21 7.15771 349.023 6.89204 348.152 6.91212C347.68 6.92274 347.478 7.25533 346.822 7.21973C346.708 7.21205 346.622 6.90445 345.406 6.87305C342.359 6.79388 334.799 7.40639 332.868 6.8379C322.493 7.06304 312.048 7.29381 301.656 7.53223C301.393 7.4096 301.13 7.2867 300.867 7.16407C298.939 7.83663 291.062 7.57096 287.295 7.65821C280.545 7.81293 272.08 8.14697 266.146 8.26856C264.88 8.29449 263.87 8.12825 262.621 8.15333C262.093 8.16438 261.444 8.41305 260.9 8.42383C259.531 8.4516 258.071 8.46846 256.578 8.47852C251.171 8.51751 245.276 8.48364 240.475 8.58594C226.629 8.8829 213.494 9.14864 199.382 9.61622C186.73 10.0582 173.899 10.5473 161.3 11.7607C150.354 12.4865 138.322 12.9415 126.897 14.1787C103.791 16.4822 80.7952 19.2311 57.8701 22.2295C57.2415 22.3115 57.2369 22.0362 56.7559 22.0986C53.8974 22.4661 47.5079 23.563 44.3145 23.9873C41.7349 24.3312 37.6052 24.4662 36.7939 24.9932C45.9491 24.4185 55.6325 23.0105 65.2002 21.9502C65.8705 21.8755 65.9909 22.1207 66.0742 22.1152C67.6235 22.0053 66.6333 21.7725 68.8486 21.4707C69.5986 21.3657 76.6234 21.3135 75.6895 20.6016C77.3949 20.7114 89.0965 19.458 91.334 19.0967C92.0181 18.9833 91.5031 18.7969 91.6377 18.7686C92.2229 18.646 92.5446 18.9477 93.0625 18.8965C94.4519 18.7555 98.0223 18.0739 98.6934 18.001C100.273 17.8243 104.999 17.5771 107.043 17.293C108.933 17.0299 108.559 16.7159 110.179 16.5107C111.466 16.3497 110.082 16.7929 112.99 16.5772C114.415 16.47 119.404 15.7457 120.616 15.626C121.841 15.5031 123.207 15.5796 124.881 15.3994C125.449 15.3384 126.177 15.2559 126.992 15.1631C129.643 14.8589 133.171 14.4665 135.062 14.2627C135.207 14.2466 135.556 13.9442 135.92 13.9209C136.672 13.8728 136.469 14.2275 137.05 14.2168C137.618 14.1783 147.543 13.4955 149.216 13.4502C150.377 13.3954 151.161 13.1575 151.799 13.1299C152.295 13.109 152.368 13.3878 152.87 13.3682C153.032 13.3605 154.355 13.0567 155.676 12.9971C156.683 12.9565 159.897 12.9235 161.388 12.8555C161.755 12.8409 162.027 12.828 162.136 12.8193C162.49 12.7904 162.078 12.6249 163.139 12.5391C164.115 12.4601 164.774 12.6641 165.332 12.6211C166.631 12.52 168.071 12.184 169.459 12.083C173.467 11.7995 173.269 12.1507 173.5 12.1436C174.143 12.1332 174.402 11.8219 174.622 11.8027C175.536 11.7226 177.753 11.5472 178.594 11.4932C179.604 11.4269 180.026 11.6855 181.134 11.6328C181.897 11.5956 183.535 11.2452 185.358 11.1533C189.513 10.9417 194.371 10.7122 198.438 10.5879C199.609 10.5519 199.807 10.8011 200.173 10.7959C202.136 10.7676 203.19 10.4498 203.736 10.4365C207.67 10.3394 214.799 10.5935 218.369 10.543C219.934 10.5173 226.325 10.1553 230.056 10.1104C230.486 10.1047 230.087 10.3136 230.566 10.2715C231.682 10.1714 231.553 9.76563 232.115 9.76563C232.385 9.76699 233.005 9.98359 233.804 9.98926C238.065 10.0164 240.719 9.78428 242.706 9.75684C247.256 9.69638 251.878 9.63957 256.598 9.58301C270.053 9.42426 283.599 9.28299 296.209 9.12794C298.109 9.10437 300.39 8.82887 303.265 9.02442C303.355 9.15002 303.444 9.27577 303.534 9.40137C303.633 9.27542 303.732 9.14939 303.83 9.02344C307.114 8.91 308.243 8.73326 311.561 8.84669C311.845 8.85611 312.723 9.42359 313.253 8.69727C316.556 9.1738 314.735 8.67275 317.146 8.5918C319.552 8.51106 321.913 8.64052 324.284 8.64551C325.583 8.88614 320.151 9.55188 319.808 9.55469C319.241 9.55976 318.648 9.21007 318.104 9.19825C316.489 9.16296 314.96 9.46741 314.575 9.15333C312.471 9.51925 315.093 9.31581 314.836 9.62305C313.423 9.51634 312.018 9.40941 310.62 9.30274C309.927 10.3461 302.208 9.10548 302.743 9.88575C302.125 9.7368 301.509 9.58743 300.895 9.43848C298.231 10.4641 296.656 9.79101 293.035 9.54981C293.296 9.6723 293.558 9.7945 293.819 9.917C293.742 9.97078 290.586 10.2194 291.706 9.66504C288.488 10.4214 288.632 9.23988 285.696 10.1367C283.964 10.2722 284.987 9.76088 281.911 9.81641C280.126 9.84852 277.788 10.1439 275.746 10.1943C275.274 10.2051 275.065 9.9222 274.647 9.92872C274.23 9.93547 274.031 10.2192 273.528 10.2344C272.496 10.2661 271.138 10.091 270.461 10.1211C269.864 10.1471 269.015 10.4092 267.599 10.4717C262.69 10.6914 264.181 10.3126 263.384 10.2061C262.525 10.0934 261.914 10.5699 260.235 10.5449C260.068 10.542 260.496 10.2438 259.951 10.2647C259.513 10.2813 259.292 10.6012 257.855 10.6856C257.739 10.6924 257.28 10.7072 256.618 10.7266C253.841 10.8052 248.021 10.9588 246.86 10.9863C244.778 11.0345 240.03 10.8613 237.893 10.9082C237.08 10.9252 236.173 11.1981 235.262 11.2158C232.288 11.2731 227.57 11.3569 223.814 11.4346C220.445 11.5021 214.538 11.094 212.647 11.6523C207.937 11.8468 206.741 11.4529 206.412 11.4561C205.433 11.4689 204.967 11.769 203.758 11.8193C191.058 12.3618 175.019 12.7663 161.48 14.0186C158.306 14.2662 155.215 14.3933 152.306 14.5322C143.934 14.8986 135.486 15.5294 127.109 16.3672C100.772 18.9683 74.5042 22.2152 48.2676 25.7363C48.1913 25.8748 48.1146 26.014 48.0391 26.1523C52.1575 25.6726 56.9403 25.248 60.9883 24.7637C66.39 24.1122 74.3135 22.5683 78.3672 22.9434C76.747 23.2203 74.1382 23.2131 74.2207 23.6523C77.0743 23.3247 79.9541 23 82.8203 22.6836C82.7105 22.4895 82.5999 22.2957 82.4902 22.1016C85.473 21.6781 88.5597 21.3553 91.5391 20.9775C92.0627 20.9115 91.6696 20.7691 92.127 20.7148C92.6395 20.6545 92.3139 20.8837 92.4102 20.874C93.7032 20.7256 94.0526 20.4917 94.2129 20.4756C94.6153 20.4369 94.3221 20.6557 95.4902 20.5732C97.6807 20.4187 99.1297 19.7661 98.7246 20.6279C99.4183 20.5496 100.116 20.471 100.818 20.3926C100.978 20.1526 101.129 19.9132 101.283 19.6738C105.648 20.0856 107.451 18.3206 109.954 19.3008C110.707 19.0299 111.466 18.7591 112.229 18.4883C112.692 18.6614 113.158 18.8346 113.624 19.0078C113.692 18.8104 113.756 18.6132 113.821 18.416C118.022 18.1177 122.485 17.4394 126.508 17.0713C126.743 17.0498 126.963 17.0308 127.171 17.0127C129.457 16.8157 130.217 16.8068 132.498 16.5928C138.05 16.0922 132.555 16.9237 137.208 16.957C136.948 16.7442 136.686 16.5314 136.433 16.3184C137.192 16.1729 137.934 16.0302 138.708 15.8877C139.251 16.0376 139.802 16.188 140.346 16.3398C142.629 15.1951 144.229 15.8972 144.547 15.8779C144.809 15.862 145.671 15.2115 148.489 15.5693C147.293 14.8197 150.618 15.4591 150.886 15.4541C151.137 15.4445 154.32 15.1207 155.601 15.0645C156.613 15.0218 158.764 15.0815 160.248 14.9648C161.558 14.8619 161.403 14.5935 161.499 14.584C161.508 14.5831 161.517 14.5829 161.526 14.582C163.109 14.4321 162.119 14.7252 163.297 14.6357C164.484 14.5439 165.381 14.2327 165.65 14.2315C165.781 14.232 165.369 14.5229 165.965 14.4981C167.551 14.4309 170.448 13.9904 172.271 13.8818C172.913 13.8423 173.754 14.0077 174.471 13.9717C175.618 13.913 176.054 13.6004 176.732 13.5713C176.949 13.5633 178.441 13.9261 180.162 13.7725C180.51 13.7408 181.442 12.7523 182.825 14.0244C182.92 13.8321 183.015 13.6396 183.11 13.4473C189.003 12.718 190.773 14.1893 193.315 12.7383C197.672 12.7336 194.705 13.3673 195.193 13.4307C195.485 13.4713 196.868 13.2783 197.028 13.2813C197.304 13.288 197.263 13.4595 197.566 13.4482C203.038 13.2356 200.608 12.9974 202.364 12.7383C206.418 12.1308 209.765 13.1023 202.536 13C202.539 13.0943 202.542 13.1889 202.545 13.2832C204.254 13.1382 208.801 13.0482 207.306 13.5713C206.127 13.9772 195.458 14.073 201.523 14.4082C202.959 14.4829 203.537 14.1098 206.002 14.7012C207.573 14.6909 207.724 13.8242 209.901 14.1084C209.536 13.8181 209.172 13.5276 208.812 13.2373C211.735 12.7617 215.338 13.1915 217.512 12.9678C218.257 12.891 221.008 11.3898 220.389 12.8379C221.595 12.7174 227.642 12.8386 228.737 12.6865C228.977 12.6503 229.436 11.8759 233.215 12.0596C233.485 12.1493 233.756 12.2394 234.028 12.3291C230.494 12.6833 236.765 12.8298 235.078 13.5898C234.475 13.2772 231.682 13.1401 231.248 12.9863C230.473 12.722 232.779 12.3077 229.817 12.4727C227.986 13.7228 233.27 13.0487 232.477 14.2148C236.277 13.5961 236.774 14.0985 237.593 14.1025C241.257 14.1129 243.666 13.943 247.149 14.0098C247.973 13.7575 241.704 13.5394 240.853 13.6592C243.773 12.7642 238.7 12.8286 236.686 13.3682C236.498 13.1194 236.311 12.8709 236.125 12.6221C238.829 12.7019 241.564 12.7163 244.246 12.4561C244.422 12.5471 244.597 12.6385 244.773 12.7295C244.174 12.8835 243.585 13.0373 242.99 13.1914C245.209 13.3804 243.846 12.6697 246.861 13.2568C246.949 12.9707 247.038 12.6846 247.126 12.3984C250.118 12.4354 252.832 12.4796 255.81 12.5205C256.019 12.4384 256.307 12.369 256.646 12.3135C258.652 11.9665 262.705 12.1426 261.833 12.7949C264.107 12.8081 261.29 12.4633 263.424 12.2471C264.37 12.1529 266.088 12.1027 266.541 12.294C266.351 13.0002 263.759 13.1312 262.906 13.6289C263.404 13.7743 275.826 13.0693 274.711 13.9111C275.701 13.9942 275.235 13.5772 277.03 13.4404C282.075 13.0582 289.834 13.78 293.85 12.6709C289.098 12.1553 287.727 12.7949 284.065 12.875C281.796 12.9234 267.62 13.2497 270.761 12.4561C270.234 12.5591 269.709 12.6626 269.187 12.7656C268.654 12.5531 268.123 12.3405 267.595 12.1279C269.069 12.0716 270.585 12.0149 272.074 11.959C272.424 12.1741 272.776 12.3894 273.128 12.6045C273.286 12.4444 273.445 12.2842 273.604 12.124C274.22 12.0829 274.839 12.0412 275.461 12C275.289 12.1923 275.118 12.3849 274.946 12.5772C275.904 12.5944 276.869 12.6117 277.84 12.6289C277.575 12.3798 277.309 12.13 277.045 11.8809C281.637 11.7454 280.05 11.9292 282.561 12.3643C284.43 12.3842 281.257 11.9455 285.224 11.7617C289.88 11.5483 286.839 12.3673 292.788 12.1143C292.872 11.9868 292.956 11.8589 293.04 11.7315C294.357 11.8386 295.685 11.9455 297.019 12.0527C296.843 11.8982 296.662 11.7443 296.484 11.5898C299.176 11.6119 302.894 11.2591 303.816 11.8623C301.05 11.6045 301.101 12.6805 301.816 12.8682C303.361 13.2496 325.091 12.5778 329.301 12.499C334.739 12.3943 338.758 12.6877 343.728 12.0957C340.35 11.703 328.608 12.2094 326.392 11.9385C326.173 11.911 326.219 10.925 324.828 12.0527C320.207 11.9252 314.803 12.3118 309.068 12.3584C309.238 12.0721 309.408 11.7854 309.578 11.499C313.087 12.0548 316.36 10.6848 315.902 11.794C316.594 11.7846 317.287 11.7749 317.982 11.7656C317.98 11.5759 317.977 11.3861 317.975 11.1963C319.023 11.1823 320.075 11.1683 321.131 11.1543C321.133 11.3441 321.136 11.5339 321.139 11.7236C322.013 11.712 322.89 11.701 323.77 11.6895C323.859 11.4988 323.948 11.3079 324.037 11.1172C326.625 11.4763 335.541 10.309 331.629 11.4912C332.857 11.4754 334.108 11.4598 335.316 11.4443C335.311 11.3055 335.305 11.1662 335.299 11.0273C335.822 11.002 336.347 10.9765 336.872 10.9512C336.701 11.0791 336.53 11.2071 336.358 11.335C338.76 11.079 341.065 11.712 342.654 11.2568C341.601 11.175 340.55 11.0935 339.502 11.0117C341.512 11.1667 345.225 10.7461 345.543 10.7412C346.547 10.7268 347.081 11.0012 348.172 11.002C349.157 11.0019 349.019 10.7876 349.203 10.793C354.532 10.9469 352.536 12.1402 354.989 10.7266C355.255 10.9123 355.52 11.0985 355.786 11.2842C356.135 11.1223 356.485 10.9598 356.834 10.7979C358.401 10.7936 359.973 10.7894 361.548 10.7852C361.02 10.5554 360.492 10.3255 359.965 10.0957C362.32 9.96178 363.431 10.4211 363.661 10.4297C364.309 10.4494 364.597 10.1494 364.797 10.1465C374.378 10.0574 368.56 10.3889 373.376 11.4482C375.086 10.9898 373.346 10.5707 373.097 10.1279C375.379 10.31 376.076 10.1784 378.477 10.1748C379.101 10.1742 379.776 10.4067 380.17 10.4053C380.512 10.404 381.576 10.1357 382.396 10.125C383.766 10.1071 385.583 10.2384 387.451 10.2129C389.003 10.191 393.769 9.95595 397.084 9.91602C398.499 9.89983 398.174 10.1169 398.539 10.1133C398.691 10.1115 399.793 9.84245 400.701 9.83106C408.113 9.7406 415.713 9.81662 423.158 9.72852C428.411 9.66685 433.719 9.40182 438.996 9.36426C440.116 9.35662 439.525 9.5514 440.014 9.55274C440.181 9.55256 440.381 9.22225 442.11 9.33497C442.735 9.37562 442.02 9.61354 442.634 9.61817C442.932 9.62022 443.057 9.33092 444.798 9.2461C447.975 9.09121 449.698 9.45593 449.979 9.44141C450.514 9.41334 450.355 9.17652 451.063 9.16016C454.518 9.08025 457.419 9.00814 460.517 8.95411C461.948 8.92884 471.929 8.77168 472.464 8.8086C473.683 8.89031 472.556 9.3993 474.115 9.36524C474.552 9.23466 474.981 9.10428 475.423 8.97364C474.722 8.88576 474.033 8.79789 473.336 8.70997C475.233 8.8489 477.448 8.59792 478.869 8.59083C479.134 8.58987 481.557 8.78909 482.782 8.75098C482.262 8.85009 481.74 8.94874 481.218 9.04786C481.404 9.12546 481.59 9.20365 481.775 9.28126C484.215 9.13366 486.858 9.10749 489.39 9.09669C490.302 9.09245 489.997 9.28965 490.918 9.28614C496.241 9.26812 494.955 8.4777 500.129 9.93067C498.395 9.81303 491.972 10.0755 491.072 10.0352C490.43 10.0067 487.908 8.75935 488.843 10.0586C483.66 10.11 488.13 9.33794 483.317 9.54883C483.415 9.70762 483.513 9.86661 483.61 10.0254C481.939 10.1446 480.696 10.2386 479.669 9.96778C479.335 10.747 473.585 10.3568 470.463 10.4434C465.897 10.5677 460.82 10.8124 456.291 10.8955C454.735 10.9239 453.869 10.6297 453.673 10.6328C453.39 10.6384 452.597 10.9137 452.031 10.9219C449.921 10.9526 443.456 10.5736 441.875 11.3301C454.473 11.1907 467.071 11.0526 479.668 10.9141C478.077 10.5684 490.827 10.3924 491.463 10.4033C492.058 10.413 491.56 10.674 491.737 10.6875C493.058 10.7823 494.156 10.4003 494.593 10.3955C494.917 10.3921 495.574 10.5585 496.72 10.542C496.929 10.5389 496.986 10.3549 497.211 10.3516C498.704 10.335 500.169 10.3211 501.647 10.3037C501.738 10.3053 502.114 10.5691 502.485 10.5654C502.859 10.5613 503.221 10.2892 503.32 10.2871C504.531 10.2756 506.591 10.4267 507.724 10.416C508.117 10.4115 507.843 10.2179 508.283 10.2148C509.633 10.2045 509.195 10.594 510.854 10.4766C511.412 10.437 511.359 10.1433 512.44 10.1699C513.213 10.1889 513.135 10.7136 513.258 10.7315C513.43 10.7525 516.073 10.3096 516.931 10.6426C515.067 11.568 518.977 10.6669 518.782 10.2871C519.816 10.3715 520.834 10.4561 521.903 10.54C522.262 10.4393 522.62 10.338 522.977 10.2373C527.201 10.6248 529.73 10.3341 533.887 10.4199C534.101 10.4242 537.502 10.5999 537.379 10.7373C535.307 10.9955 533.262 11.0301 531.908 10.6133C529.711 11.4631 529.625 10.8066 526.131 10.9561C524.95 11.0067 524.866 11.2319 524.729 11.2363C520.041 11.4012 512.686 11.5796 509.595 10.96C508.733 11.1465 511.839 11.1824 510.635 11.3262C510.003 11.4049 493.986 11.7914 499.092 10.9815C498.562 11.0082 498.032 11.0348 497.5 11.0615C496.979 11.7787 494.316 11.6462 494.608 10.9346C494.358 11.0824 494.103 11.2293 493.86 11.377C493.373 11.505 492.796 11.578 491.982 11.626C488.853 11.809 470.176 11.7674 469.19 11.8799C469.17 12.0482 469.149 12.2165 469.128 12.3848C477.315 12.485 485.415 11.9788 494.349 12.3613C494.079 12.2067 493.825 12.0512 493.563 11.8965C497.185 12.0773 500.752 12.2586 504.341 12.4395C500.581 12.7667 494.462 13.0744 490.532 12.8828C489.825 12.8487 490.34 12.6225 490.178 12.5977C489.752 12.5332 489.301 12.9196 487.768 12.9736C486.221 13.0277 482.389 12.8001 482.042 12.8115C481.367 12.8348 479.544 13.2905 478.385 13.2979C476.86 13.307 477.878 13.0258 477.572 13.0234C476.307 13.0108 475.16 13.1577 474.188 13.1484C472.734 13.1346 469.687 12.6926 468.665 13.4014C469.716 13.4217 470.764 13.4425 471.809 13.4629C466.117 13.7756 461.703 12.9321 456.084 13.6816C454.816 14.5401 459.46 14.3747 455.538 14.7783C456.248 14.7584 456.964 14.7387 457.676 14.7188C457.841 14.5401 458.006 14.3613 458.171 14.1826C459.399 14.2955 460.623 14.4086 461.845 14.5215C461.495 14.3677 461.144 14.2134 460.794 14.0596C465.103 13.8933 469.508 13.6838 471.023 14.5147C471.11 14.3088 471.197 14.1023 471.284 13.8965C475.27 14.1018 481.356 13.1668 480.226 14.3193C480.415 14.2568 480.605 14.1944 480.795 14.1318C483.222 14.3381 482.181 13.8788 483.089 13.8154C483.331 13.7978 488.089 13.988 485.985 14.3496C490.627 14.5571 489.178 13.5081 490.449 13.4473C493.37 13.9429 498.72 13.0913 496.48 13.9502C496.923 13.9766 497.366 14.0039 497.807 14.0303C499.247 13.3582 500.675 14.0844 502.227 14.3154C502.753 14.3244 503.269 14.333 503.812 14.3418C504.17 14.117 504.527 13.8928 504.883 13.668C509.912 14.6629 508.283 11.807 510.578 14.1963C510.228 14.3446 509.878 14.4923 509.526 14.6406C508.69 14.7187 507.849 14.7969 507.006 14.875C510.395 14.9009 513.793 14.9269 517.2 14.9522C521.438 15.5812 524.029 14.8174 528.73 15.2988C529.163 15.2296 529.636 15.1593 530.087 15.0898C529.627 15.6421 527.863 15.5826 531.152 15.79C531.447 16.1729 529.185 16.2493 528.226 15.9639C527.988 15.8942 529.998 15.5743 527.734 15.5898C526.183 15.6002 529.021 16.0328 524.346 15.9141C524.521 16.0066 524.696 16.0989 524.871 16.1914C524.363 16.1945 523.852 16.1981 523.341 16.2012C522.883 15.9878 522.425 15.7739 521.965 15.5606C520.777 15.8898 520.164 16.3397 517.523 16.2754C518.237 16.1304 517.264 15.7025 515.949 15.7246C515.951 15.8825 515.952 16.0404 515.954 16.1982C512.771 16.3359 513.826 15.8602 511.209 16.252C510.946 16.1292 510.683 16.0066 510.42 15.8838C509.013 16.4179 503.685 16.8297 504.646 16.042C503.12 16.8142 500.073 16.5068 498.89 15.916C498.802 16.0741 498.714 16.2326 498.627 16.3906C498.009 16.4293 497.39 16.4681 496.769 16.5068C496.421 16.4157 496.072 16.3246 495.724 16.2334C495.283 16.3333 494.842 16.4333 494.399 16.5332C494.126 16.3786 493.869 16.2231 493.604 16.0684C492.91 16.265 492.214 16.4625 491.516 16.6592C491.086 16.5382 490.655 16.4169 490.224 16.2959C490.187 16.625 485.905 16.7455 484.697 16.543C484.347 16.6424 483.996 16.7414 483.645 16.8408C483.471 16.6862 483.296 16.5316 483.122 16.377C482.861 16.5051 482.6 16.6336 482.338 16.7617C481.73 16.6432 481.122 16.5248 480.512 16.4063C478.036 17.2009 477.943 16.5282 477.374 16.5391C476.303 16.5597 472.751 17.0794 472.151 17.0615C471.555 17.0432 471.263 16.7706 470.78 16.75C462.797 16.405 466.08 17.1087 464.49 17.2432C463.635 17.3163 463.025 17.0658 462.266 17.1025C460.978 17.1642 454.368 17.5772 454.011 17.5479C453.463 17.5052 454.74 16.2798 452.961 16.6113C452.911 17.2626 449.078 16.6486 450.876 17.5361C449.3 17.4739 447.719 17.4118 446.135 17.3496C446.317 18.1188 444.378 17.6438 442.266 17.71C439.272 17.803 432.513 18.3854 432.756 17.5918C432.041 17.7815 431.325 17.9714 430.609 18.1611C425.681 17.9669 420.877 18.2811 415.989 18.3457C401.51 18.5382 385.8 18.5468 371.384 18.5625C370.691 18.5629 370.787 18.3036 370.288 18.3037C367.669 18.3063 360.854 18.5718 357.186 18.5596C356.013 18.5558 355.44 18.3109 355.068 18.3037C353.808 18.2783 354.111 18.6067 353.524 18.6045C352.596 18.6006 347.72 18.3523 346.056 18.3408C345.226 18.3352 344.267 18.6111 343.281 18.542C343.198 18.5357 343.349 18.2622 343.278 18.2578C341.498 18.2469 342.571 18.4686 341.97 18.4639C337.683 18.4294 333.144 18.482 328.497 18.4863C327.348 18.487 325.597 18.3187 324.618 18.3135C324.239 18.3122 324.922 18.5096 323.609 18.5098C323.16 18.5098 323.002 18.2432 322.496 18.2324C320.316 18.188 319.602 19.0605 317.737 18.3916C314.175 18.4848 307.88 18.7921 304.607 18.8428C303.824 18.8545 303.441 18.7016 302.698 18.7148C302.171 18.7242 301.249 18.9825 300.434 18.9971C299.614 19.0115 298.339 18.796 296.77 18.8272C295.085 18.8599 293.02 19.0286 292.647 19.0332C292.196 19.0397 291.982 18.7475 291.532 18.7578C290.186 18.787 286.528 19.1321 284.755 19.1904C282.862 19.2523 281.741 19.126 281.104 19.1387C280.513 19.1517 279.835 19.4123 279.549 19.419C279.117 19.4295 279.01 19.1394 278.463 19.1504C277.571 19.1691 276.657 19.3668 275.338 19.3926C269.171 19.514 262.839 19.6254 256.779 19.7266C239.357 20.0205 222.123 20.2485 205.076 20.6016C202.519 20.6558 201.059 20.9039 197.254 20.9395C195.718 20.9543 196.364 20.631 195.183 20.7295C194.634 20.7747 194.779 21.0059 194.097 21.042C191.174 21.1959 187.596 21.121 186.378 21.1777C185.848 21.2015 185.254 21.4952 184.234 21.5449C177.405 21.8699 169.727 22.2707 162.199 22.9766C161.036 23.0723 159.885 23.1547 158.758 23.2275C154.139 23.5208 147.493 23.8916 142.427 24.2656C137.698 24.5952 132.854 25.0091 127.989 25.4785C118.416 26.4012 108.927 27.3819 100.425 28.3565C81.0531 30.5633 61.8497 33.3356 42.4629 35.71C51.617 35.116 63.9125 33.3821 73.9561 32.1885C91.517 30.0832 109.757 27.9286 128.047 26.0752C139.491 24.8257 150.397 24.4281 162.255 23.6787C162.846 23.6313 163.431 23.5817 164.012 23.5322C174.278 22.5818 187.304 22.0599 198.789 21.8213C199.296 21.8109 200.329 21.5701 201.469 21.5557C201.749 21.5514 204.635 21.8381 205.667 21.8115C204.719 21.1697 208.587 21.6517 209.82 21.6016C211.35 21.5371 214.563 21.1142 218.048 21.2148C221.327 21.3031 220.424 21.584 220.605 21.5957C221.721 21.6726 222.108 21.2476 222.98 21.1846C226.544 20.9213 244.961 20.7709 250.122 20.6973C251.418 20.6768 251.466 20.9399 251.76 20.9356C252.542 20.9228 253.659 20.6417 254.945 20.6201C255.544 20.6103 256.17 20.6168 256.795 20.6309C258.494 20.6729 260.184 20.7802 261.123 20.7647C264.223 20.7135 269.85 20.326 273.776 20.2578C274.867 20.2387 274.807 20.5137 275.303 20.5049C277.512 20.4647 283.201 20.0536 285.94 20.0098C290.4 19.9379 294.941 20.0487 299.423 19.8945C299.708 20.013 299.994 20.1316 300.279 20.25C300.725 20.1152 301.172 19.9805 301.62 19.8457C309.278 19.8355 316.938 19.4552 324.564 19.3731C325.427 19.3636 329.726 19.5425 330.453 19.5342C331.053 19.5264 331.64 19.2148 332.533 19.2481C333.783 19.294 332.62 19.8876 334.653 19.6963C335.195 19.6447 334.666 19.4035 335.755 19.3125C336.107 19.2821 343.14 19.0931 343.531 19.1055C344.17 19.1263 344.728 19.6486 344.892 19.6582C345.733 19.7075 345.693 19.302 346.257 19.2578C347.921 19.1261 350.113 19.3726 350.386 19.3633C353.702 19.247 359.797 18.8478 363.275 18.9981C363.755 19.0191 363.702 19.3222 363.786 19.3311C364.33 19.3871 364.657 19.0386 365.17 19.0244C367.924 18.9523 372.274 19.1331 375.059 19.1592C375.378 19.1617 376.051 18.9878 376.622 18.9971C379.854 19.0522 378.811 19.3306 378.994 19.3398C379.43 19.363 380.194 19.0601 381.354 19.0283C384.354 18.9446 390.067 18.9204 393.278 18.9063C395.681 18.8966 395.647 19.2331 395.805 19.2383C396.141 19.2465 397.073 18.9675 398.652 18.919C401.691 18.8243 401.349 19.092 402.598 19.0664C402.703 19.0652 402.518 18.8091 403.903 18.7666C406.583 18.6847 412.603 18.8707 415.468 18.8252C416.572 18.808 416.828 18.5556 417.958 18.5381C419.751 18.5094 423.791 18.7337 424.108 18.7295C424.198 18.7283 424.394 18.4396 424.918 18.4336C425.493 18.4272 426.067 18.5683 426.498 18.5625C428.958 18.5311 433.172 17.9841 432.011 19.0205C432.793 18.7591 433.576 18.4977 434.356 18.2363C439.512 18.2295 444.456 18.0737 449.578 17.9658C450.724 17.9418 451.682 18.1245 452.646 18.1045C453.605 18.0843 457.863 17.7171 458.582 17.7031C459.87 17.6785 467.047 17.5665 467.974 17.5791C469.736 17.6035 471.439 18.0074 472.15 17.917C472.72 17.8442 472.191 17.6117 473.277 17.5322C475.137 17.395 478.396 17.6652 478.969 17.6543C479.215 17.6497 478.755 17.4684 481.062 17.4297C482.304 17.4085 482.969 17.6054 483.418 17.5996C483.563 17.5969 483.327 17.2679 485.806 17.2852C487.522 17.2976 488.251 17.546 488.431 17.5449C488.7 17.5434 489.345 17.2631 490.419 17.2607C492.905 17.2572 497.551 17.5192 499.93 17.5166C500.389 17.5163 500.233 17.1882 502.061 17.1982C503.367 17.2056 503.133 17.4706 503.635 17.4756C504.428 17.4829 505.605 17.1486 507.336 17.1397C509.46 17.1297 525.674 17.2798 526.496 17.3565C527.055 17.4081 527.7 17.4044 527.976 17.544C527.742 17.6834 527.507 17.8224 527.272 17.9619C524.815 17.5102 525.808 18.047 525.155 18.0898C524.227 18.1509 520.547 18.1231 519.733 18.2539C519.428 18.3013 520.132 18.5851 518.49 18.7539C516.725 18.9344 515.921 18.4245 515.218 19.1426C512.66 18.3829 510.225 19.2461 513.175 19.4365C514.878 19.5425 530.778 19.6434 534.131 19.6475C536.7 19.6528 541.809 19.3823 544.981 19.3984C546.971 19.4071 551.635 19.3866 551.431 19.7666C551.628 19.7698 551.776 19.7681 551.886 19.7617C552.382 19.7341 552.127 19.6295 551.883 19.5361C551.712 19.4672 551.548 19.404 551.678 19.3828C551.726 19.3749 551.795 19.3685 551.881 19.3633C553.177 19.2891 557.853 19.4565 558.74 19.4356C563.834 19.3219 569.879 18.8202 574.821 19.2285C574.601 19.3326 574.379 19.4369 574.156 19.541C573.049 19.7419 568.06 19.5437 567.486 20.0361C574.822 19.9393 582.18 19.8362 589.529 19.7227C589.33 19.3145 598.53 19.172 598.924 19.3496C598.771 19.5521 598.617 19.7545 598.463 19.957C593.24 19.2861 593.768 20.2796 590.304 19.8018C588.912 19.8159 589.334 20.1394 588.638 20.2129C581.727 20.941 588.529 19.5378 583.226 19.9121C584.829 20.3679 580.508 20.6063 578.566 20.6943C578.052 20.7153 572.376 20.6719 571.609 20.6895C567.819 20.7838 561.122 21.1335 557.281 20.919C555.132 20.9233 553.637 21.1126 551.904 21.2607C551.273 21.3174 550.606 21.3682 549.851 21.3994C547.782 21.4845 548.368 21.2371 547.384 21.2461C545.307 21.2645 544.598 22.0033 543.307 21C541.934 21.1432 540.542 21.2862 539.132 21.4297C539.13 21.2718 539.128 21.1139 539.126 20.9561C538.248 20.9664 537.316 20.9765 536.472 20.9863C536.22 21.1469 535.968 21.3081 535.716 21.4688C532.96 21.2849 534.101 20.8901 533.58 20.4482C532.98 20.4245 532.377 20.4007 531.771 20.377C531.307 20.7262 530.84 21.0755 530.372 21.4248C527.65 21.4282 525.054 21.4305 522.32 21.4336C522.143 21.2781 521.965 21.1223 521.787 20.9668C521.783 21.1243 521.779 21.2819 521.775 21.4395C517.279 21.523 512.638 21.608 508.158 21.6904C506.966 21.9567 514.195 22.0667 514.785 22.0752C517.856 22.1245 526.007 21.7786 526.021 22.3398C527.866 21.8995 533.705 21.9364 535.448 22.419C532.795 22.4197 529.952 22.4228 527.314 22.4229C527.403 22.6102 527.492 22.798 527.581 22.9854C524.23 22.2638 523.702 22.3108 520.223 23.0684C520.217 22.8159 520.211 22.563 520.205 22.3106C517.84 23.216 513.513 21.775 513.395 22.8604C512.068 22.7874 510.826 22.7141 509.536 22.6406C506.768 22.8038 511.077 23.5898 500.185 23.3838C499.436 23.3693 499.589 23.0915 498.46 23.1231C498.144 23.1324 496.236 23.5554 492.693 23.5527C492.141 23.5521 492.096 23.3132 491.521 23.2891C490.196 23.2314 487.535 23.7342 488.736 22.9482C483.426 22.7815 485.618 23.3922 483.995 23.6621C482.913 23.8413 483.126 23.3812 482.187 23.4951C481.019 23.6365 481.896 24.0881 477.19 23.9277C477.719 23.8906 478.247 23.8535 478.773 23.8164C478.507 23.6941 478.24 23.5715 477.974 23.4492C475.29 23.7792 475.53 23.3377 474.289 24.0547C472.355 23.7621 470.678 23.7564 468.011 23.8428C462.817 24.0111 465.514 24.7396 459.604 23.7832C458.649 23.9371 457.693 24.0912 456.734 24.2451C455.153 23.961 456.42 23.57 454.087 23.5195C455.92 24.2438 450.995 24.0265 450.162 24.6992C450.073 24.542 449.983 24.3847 449.894 24.2275C449.37 24.2333 448.846 24.2393 448.321 24.2451C448.321 24.372 448.32 24.4991 448.32 24.626C447.621 24.5387 446.921 24.4515 446.22 24.3643C445.692 24.4959 445.176 24.6272 444.654 24.7588C443.793 24.503 442.931 24.2469 442.068 23.9912C441.528 23.9791 440.987 23.9672 440.446 23.9551C440.619 24.142 440.793 24.3287 440.966 24.5156C440.27 24.4602 439.574 24.4051 438.877 24.3496C439.69 24.6507 439.187 25.0196 437.017 25.0342C435.228 25.0464 437.226 24.3768 433.4 24.6885C433.133 24.7109 432.667 25.1783 429.039 25.29C424.683 25.4242 426.794 25.0655 426.018 25.0625C425.863 25.0623 424.54 25.3102 423.297 25.3574C422.592 25.3843 421.91 25.2038 421.816 25.2051C421.381 25.2185 421.257 25.4856 420.653 25.502C419.121 25.542 417.059 25.4356 415.555 25.4658C414.872 25.4793 414.233 25.643 413.929 25.6484C413.457 25.6556 412.855 25.4224 412.377 25.4287C410.614 25.4537 407.944 26.2806 407.111 25.1836C405.426 26.2199 401.859 25.0307 402.127 25.71C397.594 25.5039 385.511 26.4809 385.854 25.3311C383.305 26.341 383.518 25.6281 382.443 25.6553C381.239 25.6855 381.865 25.8684 380.908 25.8711C378.675 25.8773 376.544 25.8213 374.33 25.8438C374.676 25.6826 375.021 25.5206 375.367 25.3594C373.042 25.3365 373.84 25.6933 371.461 25.792C367.084 25.9726 368.927 25.659 368.275 25.2549C368.448 25.6503 363.314 25.6502 362.774 25.6045C362.461 25.5763 363.828 25.0474 360.665 25.251C360.84 25.4065 361.015 25.5622 361.19 25.7178C359.744 25.5197 355.847 25.8397 355.187 25.7949C354.886 25.7739 353.238 24.5234 351.752 25.5479C351.569 25.3925 351.387 25.2364 351.205 25.0811C349.547 25.291 347.895 25.5009 346.248 25.7109C345.981 25.4304 345.715 25.1497 345.448 24.8691C344.924 24.8757 344.407 24.882 343.878 24.8887C344.235 25.1363 344.58 25.3841 344.931 25.6318C341.678 25.5584 337.709 26.0069 337.038 25.165C336.348 25.3314 335.659 25.4977 334.972 25.6641C334.521 25.3869 334.062 25.11 333.603 24.833C330.366 24.946 330.319 25.1358 328.126 25.4658C328.209 25.2439 328.292 25.0217 328.375 24.7998C326.763 25.1308 323.819 25.458 321.457 25.5283C320.34 25.5611 318.43 25.2826 318.169 25.3135C317.901 25.3461 315.338 26.5763 315.031 25.5459C311.155 26.0568 309.474 25.6118 307.925 25.6445C306.915 25.6662 306.486 25.9199 305.318 25.9619C303.662 26.0221 302.009 25.9256 301.066 25.9561C300.527 25.9742 300.43 26.2174 300.06 26.2305C298.31 26.2924 299.329 26.0308 297.493 26.0732C297.339 26.0783 295.948 26.3936 294.412 26.3779C293.548 26.3693 291.335 26.0696 291.144 26.0732C290.282 26.0919 290.988 26.745 288.031 26.0215C288.12 26.1465 288.21 26.2724 288.299 26.3975C284.588 26.7734 284.025 26.2182 283.282 26.1904C283.188 26.1887 282.304 26.4203 281.776 26.3984C280.885 26.3608 280.524 26.0687 280.327 26.0586C279.625 26.0238 277.212 26.1923 275.67 25.9287C275.995 26.7715 270.641 27.1592 269.376 26.2197C268.412 26.4251 267.456 26.6306 266.509 26.8359C266.076 26.685 265.646 26.5337 265.217 26.3828C264.96 26.5448 264.704 26.7062 264.448 26.8682C263.025 26.5451 261.591 26.2232 260.192 25.9004C260.11 26.2494 260.027 26.5983 259.944 26.9473C259.554 26.9145 259.165 26.8823 258.777 26.8496C258.471 26.5787 258.165 26.3071 257.86 26.0361C257.537 26.0774 257.215 26.1189 256.895 26.1602C256.731 26.1802 256.568 26.2006 256.405 26.2207C256.285 26.4228 256.165 26.6251 256.045 26.8272C253.389 27.1059 254.67 25.1741 249.772 26.9424C248.969 26.7999 248.173 26.6581 247.385 26.5156C246.511 27.2992 244.861 26.8666 243.569 26.9785C242.637 27.058 242.671 27.3627 241.381 27.3955C240.091 27.4283 240.137 27.1356 240.036 27.1357C238.996 27.1392 238.229 27.4125 237.482 27.377C237.371 27.3717 237.085 27.0311 236.084 27.0303C235.092 27.0295 234.503 27.4102 233.063 27.3721C232.329 27.3529 232.112 27.0663 231.469 27.0547C228.243 27.0005 225.216 28.5482 222.767 26.8555C222.264 27.0892 218.395 27.962 216.774 27.96C214.272 27.954 215.184 27.5868 214.167 27.5508C214.024 27.5452 213.212 27.6827 211.124 27.7197C210.743 27.7267 210.829 27.917 210.775 27.9219C208.193 27.9893 203.458 27.9772 200.643 28.042C200.394 28.0474 199.163 28.6276 196.938 27.9766C193.722 28.6233 187.684 27.6946 183.471 28.7031C182.877 28.7476 182.178 28.5871 181.931 28.6055C179.671 28.7796 180.54 29.3097 175.503 28.7363C175.917 29.0123 174.794 29.3462 173.146 29.4307C170.681 29.5617 172.402 28.8837 170.434 29.0693C170.445 29.2265 170.456 29.3839 170.468 29.541C166.877 29.4703 165.651 29.9525 162.79 30.3496C162.002 30.4563 161.113 30.552 160.055 30.6201C158.226 30.7399 155.636 30.5115 155.229 30.5293C155.067 30.5383 153.217 31.004 153.045 31.0147C152.056 31.0714 151.488 30.9216 150.647 30.9609C147.857 31.0869 144.622 31.7787 145.154 30.8477C144.416 31.082 143.671 31.319 142.921 31.5586C140.009 30.7909 137.943 32.2829 137.284 31.4014C136.783 31.6342 136.287 31.8674 135.792 32.1016C133.432 32.2793 131.059 32.4759 128.687 32.6865C118.532 33.5891 108.412 34.579 98.292 35.6543C97.8128 36.0082 92.3569 36.5336 92.0693 36.5225C90.7616 36.464 92.0644 35.6521 89.4346 36.1143C89.1772 36.4331 88.9203 36.7516 88.665 37.0703C85.4062 37.5547 86.9302 37.086 85.6094 37.0498C85.0701 37.1507 85.2709 37.3492 84.542 37.4541C80.5691 38.0222 72.3833 39.0631 68.0332 39.6514C67.1627 39.7685 67.2745 39.5448 66.998 39.5801C66.2208 39.6834 64.8149 40.1322 63.2832 40.335C55.092 41.3911 44.3471 42.8606 34.7139 43.8418C33.4962 43.9477 32.3292 44.0643 31.2158 44.1865C30.6319 44.2507 30.5209 44.0169 30.126 44.0606C29.5782 44.1215 28.387 44.5062 27.8105 44.5801C27.2732 44.6482 26.8869 44.5211 26.3105 44.5986C23.6431 44.9511 20.1986 45.9914 17.3193 46.1504C17.0832 46.1506 13.9478 45.9604 13.875 45.9238C13.384 45.6684 15.7722 44.3195 11.4287 45.0166C15.0421 43.4515 13.5871 42.8581 8.62305 44.0381C10.9761 43.1137 13.4623 42.2836 15.9863 41.5313C15.9646 41.4297 15.9426 41.3281 15.9209 41.2266C13.4718 41.3241 11.0851 41.7777 7.70801 42.8994C7.77955 42.7723 7.85963 42.6432 7.92871 42.5176C10.7476 41.022 14.5543 39.9003 16.8369 38.6885C13.1477 39.0767 9.45737 39.6105 5.87402 40.4063C6.01473 40.2736 6.16929 40.136 6.31055 40.0049C7.87405 39.2098 11.5857 37.9704 12.9727 37.4238C18.3063 35.2774 8.02182 38.242 9.60645 37.3984C15.3894 35.6694 21.3433 34.409 27.333 33.5049C27.437 32.7116 4.47351 37.2595 4.47363 36.9141C6.28024 36.1777 8.10469 35.5264 9.95312 34.919C9.05005 34.9318 8.16046 34.951 7.24805 34.9912C7.45056 34.8459 7.66628 34.6971 7.86914 34.5537C10.9737 33.3877 14.1228 32.3785 17.3096 31.4766C7.52504 33.901 3.25598 35.5419 0 34.9102C0.249586 34.7417 0.525401 34.5668 0.774414 34.4072C3.46133 34.3683 13.1859 30.9995 18.5869 29.7412C17.4096 29.609 12.7296 30.9962 11.6846 31.084C11.3856 31.1013 12.3105 30.6061 11.624 30.6602C9.83117 30.7161 2.34114 32.747 3.26758 32.0596C3.88801 31.3632 15.7143 27.6832 18.0898 27.377C12.467 28.1133 6.9138 29.3978 1.02148 31.0762C4.3584 28.9784 7.20154 27.0314 13.6641 25.4053C15.5614 24.3964 1.6789 27.6509 1.13281 27.8877C3.54237 26.7452 5.87399 25.7715 8.22266 24.8623C6.20301 25.4974 4.17746 26.1867 2.10547 26.9824C2.07301 26.91 2.04128 26.8371 2.00879 26.7647C7.30356 24.5427 11.9023 22.6513 18.0107 21.4395C17.7268 21.0613 14.0972 21.8718 12.3291 22.3135C19.4224 19.3329 25.729 18.4367 31.9375 18.1856C36.5528 18.0514 41.9908 17.9453 47.7549 17.3594C71.0484 14.9035 100.769 10.7839 126.323 8.24415C130.366 7.8369 134.301 7.48782 138.12 7.21485C145.84 6.61662 153.98 6.48423 160.839 6.00587C174.337 4.82326 188.195 4.46913 201.402 4.11524C202.514 4.08677 203.095 4.3282 203.59 4.31641C208.168 4.20431 215.783 3.76336 220.351 3.68653C229.819 3.51722 246.38 3.14086 255.102 3.23047C255.56 3.23472 256.023 3.23855 256.484 3.24219C259.628 3.27155 262.775 3.317 264.062 3.83594C265.384 3.84494 266.108 3.27652 266.457 3.24024C266.461 3.2407 266.465 3.24075 266.469 3.24122C267.587 3.12851 270.487 3.47122 271.138 3.43653C271.227 3.43129 270.658 3.0377 272.18 3.13477C272.315 3.14307 272.192 3.4189 273.469 3.40235C273.791 3.39797 278.107 2.90944 279.378 2.86426C283.424 2.71702 293.277 2.90056 298.208 2.8252C298.952 2.81457 299.381 2.64787 300.171 2.6338C300.579 2.62646 301.195 2.79173 301.321 2.78907C301.871 2.77506 304.29 1.95105 303.439 3.52247C305.98 3.38803 305.228 2.88246 305.279 2.54688C308.007 2.46055 309.32 3.17755 310.026 2.38965C323.488 2.29904 336.95 2.2199 350.409 2.14747C350.412 2.02056 350.415 1.89352 350.417 1.76661C354.411 2.22412 355.739 1.3503 358.013 2.0586C359.405 1.87961 360.801 1.7014 362.2 1.52247C398.084 1.58863 433.873 0.601874 469.352 0.213873C470.849 0.197416 471.229 0.462585 473.685 0.437506C476.389 0.40965 480.276 0.0529659 483.827 0.017584C486.995 -0.0144289 491.638 0.190261 495.147 0.191412C495.948 0.191059 496.522 0.0138098 496.612 0.0136777C497.14 0.0145133 497.17 0.285097 497.681 0.287115C498.292 0.288864 499.025 0.0804076 499.727 0.0849668C502.33 0.100745 505.213 -0.000887896 505.552 5.86171e-06ZM53.6748 36.4834C52.6977 36.7589 51.6151 37.049 50.6377 37.3252C51.3085 37.2804 51.9956 37.2335 52.6982 37.1846C53.0441 36.948 53.3486 36.7169 53.6797 36.4824C53.6781 36.4826 53.6764 36.4832 53.6748 36.4834ZM60.4268 35.5752C60.6438 35.8328 60.8542 36.0918 61.0625 36.3506C63.6485 35.8341 62.3094 35.5637 65.6104 34.9873C65.6119 34.9871 65.6137 34.9865 65.6152 34.9863C63.889 35.1802 62.1383 35.3794 60.4268 35.5752ZM83.2676 32.8467C86.7176 32.4618 82.3527 32.3869 80.1396 33.04C79.948 32.937 79.7563 32.8345 79.5654 32.7315C79.1538 32.9087 78.7273 33.0877 78.3125 33.2656C77.6942 33.248 77.0809 33.2302 76.4727 33.2119C75.8353 33.6102 75.1512 34.0145 74.502 34.415C77.5523 34.2429 80.7891 34.0912 80.1533 33.2315C80.837 33.1469 81.5276 33.0619 82.2236 32.9766C81.6823 33.4311 81.7883 33.5448 83.6201 33.5674C83.9337 32.9893 85.8698 33.0286 87.9697 32.6592C86.4403 32.8104 84.8325 32.9727 83.3018 33.1279C83.2903 33.0343 83.279 32.9403 83.2676 32.8467ZM90.627 32.1641C90.8011 32.331 90.9758 32.4981 91.1504 32.665C91.7481 32.7085 94.577 31.5627 93.6338 31.5147C92.6209 31.7315 91.6184 31.948 90.627 32.1641ZM56.9082 30.1436C55.7564 30.13 50.5029 30.9218 48.7012 31.0361C48.5703 31.537 56.7801 30.5003 57.6035 30.3086C57.4252 30.2634 57.1498 30.146 56.9082 30.1436ZM109.713 29.5273C105.147 30.5616 107.967 29.8066 102.975 30.3574C103.352 30.6018 103.73 30.8465 104.109 31.0908C106.528 30.299 110.573 30.2121 109.718 29.5264C109.716 29.5265 109.714 29.5272 109.713 29.5273ZM72.1201 28.0264C70.6705 28.1904 57.4937 29.9225 58.6543 30.2607C59.2802 30.4188 63.7357 29.6168 65.0781 29.4463C66.8702 29.2151 71.7797 29.1086 72.1201 28.0264ZM182.519 15.0186C183.634 14.3746 178.564 15.077 177.657 15.126C177.026 15.1562 176.985 14.8818 176.54 14.9053C176.076 14.9303 176.466 15.098 175.936 15.1309C173.686 15.2715 171.231 15.3551 169.206 15.5215C166.655 15.7262 164.139 15.9736 161.655 16.1904C150.263 16.9696 138.735 17.3614 127.319 18.5469C121.632 19.0912 115.936 19.6605 110.209 20.2627C107.827 20.5142 108.281 20.2438 108.164 20.2549C108.163 20.2556 108.161 20.2561 108.159 20.2568C95.3467 21.6106 80.8104 23.8386 67.2549 25.4082C57.721 26.484 48.1653 27.6597 38.6504 28.7861C38.3814 28.8773 38.124 28.967 37.8633 29.0566C56.3473 27.885 77.4946 24.5855 97.085 22.3594C99.2005 22.1169 99.4475 22.3898 100.219 22.2705C100.725 22.1927 100.613 21.9632 101.287 21.8867C110.077 20.8918 118.753 19.9382 127.368 19.0537C138.902 17.7765 150.411 17.3295 161.689 16.626C165.218 16.3329 168.786 16.0297 172.35 15.8272C173.815 15.7268 181.03 15.8552 182.519 15.0186ZM326.923 12.9609C326.481 12.8691 324.756 13.181 324.573 13.1836C324.228 13.1881 324.321 13.044 324.315 13.0068C322.061 13.0623 324.145 13.4767 322.48 13.5947C322.191 13.6142 318.295 13.4483 316.732 13.4873C314.339 13.547 311.848 13.5524 310.951 13.5723C309.398 13.606 306.641 13.9751 304.063 14.0283C303.017 14.0495 302.648 13.7891 301.603 13.8106C294.92 13.9484 281.725 14.5086 275.74 14.4365C274.27 14.4179 272.883 14.0933 272.121 14.1338C271.524 14.2703 270.881 14.407 270.267 14.544C268.341 13.4331 267.724 14.4595 265.716 14.5996C264.445 14.6882 263.851 14.3603 263.664 14.3643C262.49 14.3909 261.919 14.5621 261.012 14.6045C259.992 14.6516 258.547 14.5237 258.192 14.5576C258.021 14.5754 258.419 14.8533 256.694 14.9981C256.215 15.0367 255.582 15.0658 254.75 15.0791C250.754 15.1427 246.738 15.1717 242.741 15.2305C244.127 16.5605 245.23 15.6094 246.904 15.5273C247.353 15.5054 247.073 15.7269 247.464 15.71C248.582 15.6627 250.688 15.4112 251.57 15.4463C252.542 15.4838 252.217 15.9893 253.456 15.7822C253.519 15.7716 253.316 15.5684 253.608 15.5283C254.863 15.3599 255.776 15.3258 256.701 15.3369C257.885 15.3531 259.088 15.452 261.231 15.4209C263.767 15.3815 278.597 14.9372 279.196 15.0645C281.879 15.744 266.047 16.0006 264.29 15.9766C263.649 15.9674 264.323 15.7289 263.724 15.6953C263.467 15.6824 261.185 16.1549 258.996 16.2295C258.359 16.2512 257.572 16.2564 256.717 16.252C253.826 16.2409 250.402 16.1353 248.394 16.1816C226.471 16.7079 204.84 16.8809 182.97 17.8398C182.476 17.8629 181.958 18.1468 180.383 18.2246C174.259 18.5176 168.138 18.9333 161.918 19.4746C150.388 20.1764 139.078 20.5043 127.623 21.6826C116.413 22.7458 105.223 23.9364 94.1562 25.2647C87.952 26.0092 81.7629 27.0038 75.4902 27.5967C74.7336 27.8833 73.9637 28.1724 73.2148 28.459C75.201 28.0536 78.8976 28.0266 79.2324 27.9922C79.3528 27.9787 80.0697 27.6741 81.2949 27.5352C83.036 27.337 83.7731 27.4351 83.9219 27.417C84.3572 27.3648 84.0479 27.2029 84.4648 27.1533C87.581 26.7852 89.9622 26.4473 92.8193 26.1123C96.0277 25.7374 97.7176 25.9158 100.008 25.251C100.292 25.3777 100.576 25.5042 100.861 25.6309C102.524 24.7514 112.989 23.6897 117.219 23.3008C118.56 23.1748 118.36 23.4741 118.805 23.4287C119.093 23.3996 118.924 23.0488 122.438 22.7686C124.208 22.6288 124.68 22.8483 125.564 22.7529C126.044 22.701 125.94 22.4482 126.632 22.3809C126.986 22.3464 127.335 22.3134 127.681 22.2813C131.215 21.9539 134.216 21.7619 137.768 21.5313C138.851 21.4617 138.892 21.6792 139.135 21.6582C140.026 21.583 141.566 21.0991 143.866 20.957C147.636 20.7035 155.169 20.4098 158.334 20.3994C158.797 20.3994 159.195 20.637 159.536 20.6113C160.051 20.5714 160.236 20.284 160.326 20.2764C161.941 20.1562 161.149 20.4367 161.988 20.3496C162.045 20.3436 162.11 20.3351 162.183 20.3252C162.801 20.2415 163.415 19.876 164.83 19.7188C166.698 19.5127 166.352 19.9152 167.138 19.8135C167.226 19.8007 167.219 19.5426 167.984 19.4736C170.873 19.211 175.13 18.8866 177.865 18.7441C178.65 18.7022 179.276 18.8432 180.362 18.792C182.649 18.6606 195.267 18.0536 196.343 18.1299C196.451 18.1375 195.344 18.5545 197.134 18.4815C197.653 18.3054 198.183 18.1292 198.72 17.9531C199.573 18.1781 200.447 18.4032 201.344 18.6279C201.335 17.7515 206.404 17.461 206.437 18.3565C206.987 18.3764 207.537 18.3969 208.099 18.417C209.226 17.7662 210.124 17.968 212.305 17.5449C212.66 17.7247 213.018 17.9052 213.379 18.085C213.465 17.9563 213.551 17.827 213.638 17.6982C214.908 18.3489 216.835 17.6115 217.077 17.6016C217.997 17.5627 218.708 17.7188 219.151 17.7022C220.811 17.6419 224.282 17.3179 226.2 17.3848C226.288 17.3884 226.208 17.6832 226.74 17.707C227.704 17.7499 227.785 17.3197 229.105 17.793C229.368 17.6607 229.632 17.5278 229.896 17.3955C230.182 17.4545 230.468 17.5133 230.756 17.5723C232.376 17.5027 233.988 17.4344 235.665 17.3652C234.149 17.8933 235.94 18.1314 237.536 17.708C238.072 17.5646 237.588 17.2731 237.767 17.2236C237.966 17.1565 245.423 17.1602 245.87 17.3477C246.216 17.2459 246.563 17.1437 246.912 17.042C247.093 17.2286 247.275 17.415 247.457 17.6016C247.65 17.5314 247.844 17.4617 248.038 17.3916C250.053 17.6872 254.877 16.8307 255.855 16.874C256.189 16.8899 256.101 17.2673 256.739 17.4727C257.031 17.5718 257.482 17.6318 258.223 17.5918C258.298 17.368 258.373 17.1438 258.448 16.9199C258.971 16.8789 259.496 16.838 260.024 16.7969C261.015 16.7995 262.488 17.1601 262.54 17.4229C262.853 17.2593 263.167 17.0952 263.481 16.9316C264.351 17.4321 268.708 17.1762 270.548 16.8203C271.078 16.9672 271.633 17.1145 272.146 17.2617C272.832 17.0617 273.523 16.8612 274.218 16.6611C275.836 16.5785 274.131 16.9197 274.477 16.9404C275.198 16.9827 278.96 16.3935 278.729 17.0576C279.242 17.0513 279.781 17.0451 280.275 17.0391C280.531 16.8461 280.787 16.6529 281.043 16.46C281.921 17.098 283.407 16.8447 286.552 17.0352C286.813 16.8813 287.076 16.7281 287.338 16.5742C288.33 16.7725 289.266 16.972 290.226 17.1709C290.418 16.9198 290.61 16.6681 290.803 16.417C291.218 16.3752 291.635 16.3338 292.052 16.292C292.907 16.835 294.431 16.2121 295.22 16.4297C296.372 16.7479 295.484 17.1598 293.372 17.2676C293.542 17.6699 299.82 17.3933 301.252 17.3438C301.155 17.2661 301.059 17.188 300.963 17.1104C299.482 17.1939 298.038 17.2773 296.553 17.3613C295.305 16.3608 299.299 16.5771 301.136 16.4199C301.304 16.405 302.25 16.0049 304.123 16.0147C304.861 16.0187 307.663 16.5442 308.191 16.5684C312.507 16.7666 309.314 16.0037 313.575 16.6523C312.674 16.1234 315.154 16.5394 317.648 16.4014C318.073 16.3777 321.72 15.8908 321.973 15.876C323.519 15.7852 321.839 16.2859 324.081 16.1318C324.349 16.0025 324.621 15.8734 324.882 15.7441C325.395 15.7374 325.91 15.7304 326.425 15.7236C329.568 16.8035 330.297 15.9682 331.416 15.8477C331.869 15.799 331.289 16.0994 332.465 16.0225C332.906 15.9938 333.403 15.7442 334.588 15.7119C338.275 15.6116 339.551 16.6368 342.967 15.5098C343.495 15.6602 344.029 15.8113 344.548 15.9619C344.897 15.7692 345.246 15.5756 345.596 15.3828C348.296 15.8959 347.318 15.3483 348.293 15.3428C350.87 15.3278 356.166 15.3702 356.623 15.8154C358.83 14.753 361.512 15.8886 362.393 15.8379C362.914 15.7058 363.437 15.5735 363.959 15.4414C364.572 15.5604 365.184 15.6798 365.797 15.7988C365.487 14.7856 368.669 15.7472 368.975 15.7588C369.324 15.7696 374.226 15.4102 376.029 15.3945C377.84 15.3789 381.005 15.6168 381.287 15.6143C381.607 15.6105 384.702 15.2986 387.112 15.2734C389.224 15.2516 401.757 15.4997 400.961 15.0557C400.14 14.9395 398.973 14.8443 397.964 14.7969C394.833 14.6515 376.453 14.6338 371.758 14.6182C362.361 14.5863 352.496 14.7324 343.064 14.752C342.505 14.7533 342.416 14.4912 341.937 14.4912C341.208 14.4928 339.368 14.7798 338.655 14.7832C335.994 14.7941 332.756 14.7927 331.313 14.8047C328.103 14.8328 325.957 14.7017 323.522 14.708C322.757 14.7104 318.921 15.0882 316.325 14.9854C315.851 14.9176 315.389 14.8499 314.905 14.7822C316.248 14.6775 319.76 14.406 321.415 14.3584C323.873 14.2888 325.164 14.4861 326.054 14.4707C326.801 14.458 330.655 14.1643 332.429 14.1357C332.978 14.1268 333.095 14.4015 333.565 14.3945C336.1 14.3553 339.419 14.3057 341.63 14.0068C340.734 14.1065 346.35 14.2055 346.638 14.2012C347.14 14.1948 347.682 13.9298 348.711 13.917C350.691 13.8926 350.446 14.4368 352.923 13.8652C353.541 14.0153 354.157 14.1653 354.767 14.3154C354.786 13.5943 362.538 14.4803 364.734 13.5781C364.795 13.4782 354.719 13.3195 353.908 13.3154C348.897 13.2903 341.55 13.5589 336.717 13.4941C335.285 13.4742 330.675 13.0957 330.334 13.1084C329.777 13.128 330.284 13.3718 330.043 13.3838C325.131 13.634 327.579 13.0982 326.923 12.9609ZM46.4238 25.9883C44.534 26.3089 42.6173 26.634 40.748 26.9492C42.6359 26.7584 44.5707 26.5576 46.4795 26.3613C46.4624 26.2363 46.4448 26.1114 46.4277 25.9863C46.4264 25.987 46.4251 25.9876 46.4238 25.9883ZM92.5469 24.3867C91.8163 24.1667 75.5351 26.2451 75.0957 26.4551C74.9684 26.5094 75.1681 26.6111 75.125 26.6895C78.8579 25.8121 84.3124 25.6248 87.9111 25.2295C88.9196 25.1181 88.5961 24.953 88.6523 24.9424C88.6546 24.9421 88.6569 24.9417 88.6592 24.9414C89.2524 24.8701 91.842 25.0633 92.5469 24.3867ZM54.3867 26.0518C53.0208 25.9538 49.9305 26.5119 48.0986 26.6211C49.451 26.7646 52.4554 26.3053 54.3867 26.0518ZM260.457 25.3301C259.285 24.9973 258.186 25.0536 256.876 25.1436C255.928 25.2062 254.876 25.2847 253.635 25.2637C253.641 25.3892 253.647 25.5151 253.653 25.6406C254.301 25.4711 255.516 25.4289 256.881 25.4082C258.065 25.3905 259.37 25.3913 260.457 25.3301ZM71.7812 23.6904C67.2041 24.2675 62.6001 24.8645 58.0146 25.4717C57.6659 25.7892 60.1181 25.4574 60.9248 25.3691C64.4578 24.9812 68.961 24.2777 72.6348 23.8496C72.3491 23.7968 72.0647 23.7434 71.7812 23.6904ZM197.11 24.1318C201.135 23.4855 193.26 23.0953 192.378 23.208C192.259 23.2234 192.29 23.5491 191.489 23.6309C190.141 23.766 182.294 23.7698 179.949 24.1152C179.918 23.8998 179.888 23.6842 179.856 23.4688C178.826 23.7423 177.851 24.0145 176.795 24.2949C176.609 23.945 173.484 24.6852 174.177 23.7861C173.142 24.1488 172.131 24.514 171.146 24.8818C171.16 24.9606 171.174 25.0394 171.188 25.1182C172.179 24.9861 173.2 24.8564 174.239 24.7295C174.251 24.8554 174.263 24.9816 174.274 25.1074C175.756 24.5468 182.184 24.4163 182.022 24.8779C182.347 24.6733 182.679 24.4685 183.017 24.2637C186.113 24.6355 188.755 23.9789 192.162 24.3525C192.421 24.1861 192.659 24.0205 192.911 23.8545C193.082 23.9745 193.254 24.0949 193.427 24.2148C194.651 24.1858 195.905 24.1573 197.11 24.1318ZM198.761 23.2285C199.193 24.0805 199.641 24.164 203.239 23.4424C203.098 23.3402 202.956 23.238 202.815 23.1357C200.924 23.2586 199.87 23.493 200.177 23.0313C199.698 23.0968 199.242 23.1625 198.761 23.2285ZM206.766 23.751C209.021 23.657 211.424 23.5619 213.723 23.4727C213.743 23.3496 213.763 23.2266 213.783 23.1035C211.451 23.6135 210.554 23.1568 209.974 23.1436C209.976 23.1435 209.979 23.1436 209.981 23.1436C208.186 23.0972 206.613 23.0721 204.896 22.9775C205.51 23.2353 206.15 23.4928 206.766 23.751ZM215.482 23.4717C217.977 23.5302 217.476 23.3223 219.839 23.7051C223.245 23.0842 220.358 23.231 220.358 22.7441C219.549 22.9071 218.751 23.0695 217.967 23.2324C216.055 22.826 217.849 22.5506 217.85 22.5068C217.848 22.5069 217.846 22.5068 217.845 22.5068C217.842 22.3611 217.9 22.3283 217.171 22.2588C216.601 22.663 216.038 23.0676 215.482 23.4717ZM226.364 22.6016C225.521 22.9448 225.134 23.3686 227.402 23.5234C227.404 23.5234 227.406 23.5235 227.407 23.5234C227.568 22.7967 229.787 23.3293 230.828 23.2578C231.104 23.1731 231.352 23.0891 231.608 23.0049C229.865 22.8693 228.062 22.7362 226.364 22.6016ZM495.011 22.8828C492.65 22.7843 489.063 22.6269 489.792 23.2236C491.281 23.1754 492.762 23.1272 494.233 23.0791C494.492 23.0137 494.752 22.9483 495.011 22.8828ZM253.04 21.4541C252.963 21.8746 252.886 22.2953 252.809 22.7158C251.322 21.7322 249.456 22.7315 246.505 22.0752C246.245 22.2077 245.986 22.3402 245.728 22.4727C244.711 22.2094 234.025 22.3499 236.339 22.9473C237.388 23.2064 239.491 22.78 239.697 22.7842C240.335 22.8027 241.179 23.1465 242.279 23.1035C242.939 23.0777 244.201 22.6284 245.465 22.6045C248.223 22.5521 253.041 23.5063 256.83 22.5772C256.984 22.5373 257.137 22.4943 257.287 22.4473C257.553 22.5689 257.82 22.6909 258.087 22.8125C260.833 22.6871 259.902 22.303 262.519 22.7354C263.591 21.5161 259.521 21.8681 256.819 21.9766C254.933 22.0497 253.624 22.0165 254.625 21.3574C254.623 21.3575 254.622 21.3574 254.62 21.3574C254.09 21.3896 253.563 21.422 253.04 21.4541ZM559.581 21.8486C559.681 22.1944 557.616 22.1641 556.457 22.1719C556.633 22.2328 556.808 22.2935 556.983 22.3545C555.617 22.3353 553.554 22.3043 551.918 22.3945C550.672 22.4666 549.704 22.618 549.631 22.9199C547.852 23.0252 548.629 22.4298 548.052 22.3701C547.845 22.3463 545.415 22.7161 543.591 22.3232C543.154 22.3301 542.715 22.3369 542.274 22.3438C542.192 22.5656 542.109 22.788 542.026 23.0098C541.408 22.749 540.785 22.4882 540.159 22.2275C544.039 22.1531 548.093 22.0755 551.913 22C554.553 21.9491 557.017 21.8996 559.571 21.8486C559.575 21.8486 559.578 21.8487 559.581 21.8486ZM235.247 22.5449C234.789 22.2791 231.421 22.6286 231.612 22.7637C231.661 22.8173 236.092 23.0669 235.247 22.5449ZM264.871 21.1787C264.894 21.9767 262.998 22.085 265.682 22.7754C266.202 22.7524 266.725 22.7291 267.251 22.7061C267.593 22.5251 267.937 22.344 268.281 22.1631C275.07 23.4975 277.023 21.0041 265.671 22.1113C265.669 22.1119 265.668 22.1127 265.666 22.1133C265.4 21.8019 265.136 21.4901 264.871 21.1787ZM279.849 21.79C280.035 22.008 280.208 22.2263 280.386 22.4443C283.381 22.1776 285.327 22.3411 284.529 21.6231C284.528 21.6231 284.526 21.623 284.524 21.6231C282.95 21.6788 281.402 21.7341 279.849 21.79ZM92.1641 21.1846C89.4739 21.5942 86.8021 22.008 84.1104 22.4297C86.6406 22.1238 89.1616 21.824 91.6768 21.5303C91.9118 21.5028 92.9978 21.144 92.1641 21.1846ZM277.183 21.7363C276.239 21.4908 273.66 22.322 275.367 22.334C276.676 22.3427 277.688 21.8682 277.183 21.7363ZM318.108 20.4824C319.628 21.0793 312.221 21.2167 309.732 21.1152C309.129 21.0901 308.054 20.7657 307.623 20.8145C307.363 20.9432 307.103 21.0724 306.844 21.2012C306.556 20.7721 301.635 21.328 299.758 21.5879C299.577 21.4329 299.397 21.2771 299.216 21.1221C298.526 21.1945 297.838 21.2674 297.152 21.3398C297.236 21.1817 297.32 21.0234 297.404 20.8652C296.891 21.0616 296.345 21.2575 295.818 21.4541C293.735 21.6944 295.007 20.8195 293.45 21.1094C291.724 21.4313 294.568 21.9007 294.522 22.2334C295.949 22.127 299.113 21.8899 300.527 21.8604C301.345 21.8437 300.416 22.4509 303.945 21.7178C304.723 21.8662 305.513 22.0146 306.287 22.1631C307.683 21.8904 309.088 21.6183 310.501 21.3457C310.768 21.5622 311.035 21.7787 311.303 21.9951C311.451 22.0275 314.743 21.4824 314.567 21.3193C315.917 21.7221 318.594 21.7611 321.481 21.7441C321.757 21.6207 322.033 21.4974 322.31 21.374C319.526 21.6695 321.421 21.2592 320.588 21.041C320.107 20.9152 318.644 20.675 318.108 20.4824ZM330.438 21.1738C330.002 21.0844 329.565 20.9956 329.13 20.9063C327.465 22.1653 330.869 20.9468 333.344 21.8945C332.53 21.1608 336.249 21.1444 336.456 21.0918C336.027 20.8468 335.597 20.6015 335.169 20.3565C333.612 20.6285 332.008 20.9014 330.438 21.1738ZM619.488 18.7109C617.758 19.4349 617.397 18.9675 615.391 19.082C615.266 19.0895 615.313 19.2431 615.27 19.2451C614.736 19.2683 614.342 19.0914 613.891 19.1045C613.037 19.1297 612.319 19.3343 610.829 19.3594C609.642 19.3786 609.602 19.0821 609.214 19.0977C608.887 19.1121 605.459 19.9977 603.158 19.6865C598.919 19.0989 616.821 18.6036 618.186 18.6065C618.634 18.6412 619.023 18.6772 619.488 18.7109ZM577.681 18.9531C579.35 18.8851 579.07 19.4351 579.007 19.5986C578.482 19.6061 577.951 19.6136 577.415 19.6211C577.504 19.3985 577.592 19.1757 577.681 18.9531ZM506.547 19.2441C506.463 18.8062 504.99 18.6584 503.094 18.9941C503.185 19.1206 503.275 19.2476 503.368 19.374C504.358 18.9894 505.615 19.6262 508.64 19.5059C508.637 19.2852 508.634 19.0645 508.632 18.8438C507.939 18.9773 507.244 19.1106 506.547 19.2441ZM143.435 19.2236C143.997 19.4384 145.106 19.1297 145.516 19.1475C145.615 19.1515 144.862 19.4048 145.795 19.4141C146.053 19.2564 146.308 19.0992 146.56 18.9424C145.52 19.0321 144.481 19.1254 143.435 19.2236ZM590.021 18.5811C589.537 18.9598 585.934 19.1778 584.278 19.2324C584.203 19.2336 584.671 19.0229 583.464 19.0596C583.062 19.0718 579.61 19.8617 580.359 19.0107C583.546 18.8701 586.765 18.7266 590.017 18.5811C590.018 18.581 590.02 18.5811 590.021 18.5811ZM593.624 18.7432C592.955 18.8704 592.273 18.9986 591.578 19.126C591.231 18.9573 590.899 18.7879 590.556 18.6191C591.285 18.5638 592.074 18.5075 592.851 18.4512C593.11 18.5486 593.368 18.6457 593.624 18.7432ZM532.531 18.7588C531.74 18.7048 530.943 18.6506 530.142 18.5967C531.205 18.4905 532.261 18.3844 533.308 18.2783C533.049 18.4384 532.791 18.5987 532.531 18.7588ZM633.397 17.4981C632.987 17.8319 632.143 18.2211 631.555 18.5361C630.967 18.6065 630.431 18.656 629.944 18.6963C631.393 18.1235 628.382 18.4392 626.487 18.5176C626.57 18.0492 630.497 18.1924 633.397 17.4981ZM541.175 17.4258C541.733 17.5295 539.937 18.329 543.266 18.4902C540.874 18.5352 538.335 18.5823 535.923 18.627C537.027 18.4883 538.226 18.3483 539.376 18.209C539.171 17.9878 538.967 17.7661 538.762 17.5449C539.572 17.5052 540.376 17.4654 541.175 17.4258ZM543.78 17.9658C542.419 17.3908 549.453 17.2616 550.056 17.3262C550.198 17.3416 550.876 17.7814 551.124 17.875C550.099 17.8881 549.062 17.9008 548.013 17.9141C548.366 18.051 548.717 18.1883 549.067 18.3252C547.849 18.3883 546.614 18.4513 545.362 18.5147C545.896 18.3665 546.427 18.2184 546.954 18.0703C545.905 18.0352 544.782 18.0017 543.78 17.9658ZM516.503 17.8057C516.329 18.0136 516.154 18.2218 515.979 18.4297C516.858 18.4346 517.732 18.4393 518.602 18.4443C518.425 18.2256 518.249 18.0068 518.072 17.7881C517.551 17.794 517.028 17.7998 516.503 17.8057ZM533.845 17.9404C532.589 19.0183 529.056 16.7348 533.151 17.5479C533.562 17.6305 533.963 17.8363 533.845 17.9404ZM271.909 17.7451C269.935 17.7522 267.768 17.5899 266.632 18.0176C267.935 18.059 269.254 18.1001 270.587 18.1416C271.026 18.0093 271.47 17.8774 271.909 17.7451ZM552.641 17.4219C555.402 16.6126 554.809 18.3311 552.171 17.8623C552.038 17.8372 552.432 17.4818 552.641 17.4219ZM576.828 17.3037C576.103 17.5719 569.029 17.8207 570.033 17.2578C571.052 17.2356 571.994 17.1309 573.105 17.1328C573.324 17.1356 573.743 17.6834 575.806 17.1279C576.148 17.1863 576.481 17.2454 576.828 17.3037ZM191.042 16.6602C191.963 16.1245 184.503 16.6595 183.126 16.708C182.48 16.7272 181.726 16.5603 181.359 16.5732C180.938 16.5893 180.344 16.8916 179.355 16.9336C179.04 16.9451 175.733 16.7996 174.29 16.9375C174.465 17.0381 174.642 17.1388 174.82 17.2393C176.553 17.1517 178.339 17.0709 180.063 17C179.891 17.0712 179.721 17.1427 179.553 17.2139C182.224 17.2468 183.316 16.8108 184.682 16.8047C184.833 16.8045 185.023 17.0267 185.599 17.0098C186.893 16.9701 190.592 16.9089 191.042 16.6602ZM216.73 15.4414C213.72 15.9987 206.131 15.3392 203.638 15.999C203.487 16.0418 204.909 16.2428 202.634 16.7871C204.344 16.6367 205.631 16.4994 205.753 16.1231C206.306 16.2329 206.815 16.3438 207.333 16.4551C208.185 16.3346 209.055 16.2144 209.942 16.0938C209.846 16.4676 209.96 16.4445 211.262 16.1543C211.86 16.2317 212.465 16.3094 213.079 16.3867C213.334 16.2227 213.59 16.0586 213.848 15.8945C214.385 16.0999 214.949 16.3048 215.477 16.5107C217.482 16.22 216.247 15.8265 216.73 15.4414ZM198.424 16.3984C199.13 16.4545 199.79 16.5124 200.494 16.5693C200.666 16.4061 200.838 16.2433 201.012 16.0801C201.01 16.0801 201.008 16.08 201.007 16.0801C200.124 16.1864 199.293 16.2914 198.424 16.3984ZM242.741 15.2305C240.638 15.2619 238.594 15.2976 236.497 15.3545C234.154 15.4176 232.345 14.9778 228.025 15.7324C226.985 15.6858 227.347 15.2938 227.222 15.2754C226.801 15.1976 212.801 15.8139 219.188 16.3936C220.888 16.3272 222.417 16.267 224.104 16.2031C222.709 15.0108 227.227 15.9992 227.573 16.0176C229.322 16.097 231.616 15.7548 232.846 15.7432C233.933 15.7328 234.595 15.9384 235.377 15.916C238.047 15.8397 242.123 15.7496 242.741 15.2305ZM546.269 15.0205C546.434 15.0213 546.73 15.2557 547.259 15.2588C547.484 15.2598 549.746 15.1707 551.829 15.1299C554.113 15.0862 556.192 15.0943 555.85 15.3037C553.987 15.5258 552.722 15.4645 551.834 15.5147C551.143 15.5554 550.69 15.6721 550.331 16.082C550.165 15.8945 549.998 15.707 549.831 15.5195C546.585 15.2309 545.553 15.899 543.754 16.1611C543.759 16.0182 543.765 15.8753 543.771 15.7324C542.562 15.7326 541.339 15.7331 540.103 15.7334C540.278 15.8252 540.453 15.917 540.628 16.0088C540.192 16.014 539.753 16.0192 539.313 16.0244C538.238 15.614 536.865 15.5313 538.515 15.0879C540.583 15.2814 542.935 15.0215 546.264 15.0186C546.265 15.0191 546.267 15.02 546.269 15.0205ZM566.32 15.1729C565.231 15.2025 564.229 15.2311 563.195 15.2598C563.538 15.4289 563.879 15.5984 564.218 15.7676C563.716 15.8213 563.21 15.8749 562.7 15.9287C561.824 15.6406 560.936 15.3524 560.037 15.0645C562.385 14.9868 564.473 14.9122 566.86 14.833C566.681 14.9463 566.501 15.0595 566.32 15.1729ZM531.174 15.3623C533.569 15.4221 534.884 15.1573 536.902 15.5313C536.735 15.6123 536.567 15.6943 536.399 15.7754C535.732 15.7109 529.979 15.5482 531.174 15.3623ZM585.748 14.5693C583.509 15.2552 580.03 14.8563 577.52 14.8848C572.786 14.9384 576.062 15.2913 575.263 15.4775C574.882 15.5694 572.16 14.9121 571.036 15.3457C572.104 14.2487 581.363 14.8634 585.748 14.5693ZM314.361 14.9365C303.198 15.0723 291.973 15.2161 280.791 15.3731C281.759 15.2268 282.733 15.0808 283.714 14.9346C293.349 14.8345 303.709 14.8205 312.963 14.4922C313.428 14.6402 313.894 14.7885 314.361 14.9365ZM197.781 14.7412C197.027 13.6314 187.416 14.7744 183.106 14.7676C182.367 15.3659 188.611 14.8381 190.09 14.8457C190.839 14.8449 194.85 15.2778 197.827 14.8555C197.812 14.8175 197.796 14.7791 197.781 14.7412ZM220.803 13.8994C224.264 13.1088 216.318 13.7214 215.984 13.7266C215.632 13.7271 210.656 13.4618 210.414 13.667C209.554 14.3222 212.69 13.9823 213.802 14.1914C215.553 14.5314 213.079 14.9134 217.233 14.5723C217.064 14.703 216.896 14.8341 216.728 14.9648C219.198 14.9432 218.379 14.0888 218.822 13.9648C218.958 13.9272 220.552 13.9612 220.803 13.8994ZM592.047 14.7559C587.491 14.4384 589.767 15.3833 587.33 14.6856C588.961 14.6141 590.454 14.5446 592.043 14.4727C592.044 14.567 592.045 14.6615 592.047 14.7559ZM520.621 13.8721C520.911 13.9067 522.917 14.737 525.122 13.918C526.797 14.151 528.379 14.3848 530.091 14.6172C527.254 14.2647 523.407 14.709 521.987 14.71C521.456 14.7102 521.35 14.4496 520.924 14.4502C518.538 14.4564 516.201 15.0755 515.941 14.2109C518.234 14.4371 520.253 13.8302 520.621 13.8721ZM427.773 14.6084C428.636 14.601 429.498 14.5933 430.359 14.5859C430.311 14.4544 429.326 14.4659 428.961 14.3809C428.962 14.3808 428.964 14.3809 428.966 14.3809C428.56 14.2846 428.73 14.1118 427.993 14.0449C427.92 14.2325 427.847 14.4208 427.773 14.6084ZM536.38 14.542C535.009 14.558 533.621 14.5746 532.219 14.5908C532.596 14.403 532.972 14.2151 533.347 14.0273C533.978 14.0222 534.607 14.0168 535.231 14.0117C535.615 14.1885 535.998 14.3652 536.38 14.542ZM543.735 14.5508C542.268 14.5386 540.779 14.5265 539.27 14.5147C539.377 14.3554 539.485 14.1963 539.592 14.0371C540.283 14.0905 540.969 14.1438 541.651 14.1973C542.174 14.0966 542.694 13.9952 543.211 13.8945C543.386 14.1132 543.561 14.3321 543.735 14.5508ZM226.163 14.2588C225.023 13.4486 224.614 14.3007 220.407 14.0625C220.084 14.2133 219.706 14.3651 219.357 14.5166C221.622 14.4285 223.897 14.343 226.17 14.2588C226.168 14.2588 226.165 14.2587 226.163 14.2588ZM379.512 13.7734C380.186 14.0083 380.862 14.2427 381.537 14.4775C381.356 14.1639 381.176 13.8498 380.995 13.5361C380.501 13.615 380.006 13.6946 379.512 13.7734ZM547.438 13.8447C548.739 13.7495 548.801 14.082 549.1 14.0947C549.987 14.1334 550.745 13.9891 551.59 13.9834C550.631 14.7873 548.523 14.4503 547.438 13.8447ZM260.767 13.2832C259.315 13.3417 257.961 13.3551 256.665 13.3613C253.506 13.3791 250.848 13.3556 247.67 13.7559C247.909 14.1961 252.767 14.0081 256.672 13.7461C259.212 13.5681 261.275 13.3536 260.767 13.2832ZM197.24 12.791C198.968 12.6838 200.166 12.7219 199.857 13.0801C198.996 13.0933 198.114 13.1073 197.215 13.1231C197.223 13.0124 197.232 12.9016 197.24 12.791ZM452.914 12.4414C453.093 12.6602 453.272 12.8789 453.45 13.0977C454.318 12.8673 455.176 12.6367 456.051 12.4063C454.998 12.4178 453.962 12.4299 452.914 12.4414ZM458.688 12.4287C458.594 12.9386 463.889 12.759 463.921 12.5576C463.931 12.4396 462.208 12.4609 461.961 12.419C461.959 12.419 461.958 12.4189 461.956 12.419C461.855 12.4002 462.372 12.1995 461.562 12.1543C460.606 12.2456 459.648 12.3374 458.688 12.4287ZM517.485 12.4854C514.636 12.5128 512.17 12.7721 509.099 12.4375C512.028 12.0471 513.548 12.5829 516.434 12.0234C516.435 12.0234 516.437 12.0235 516.438 12.0234C516.788 12.1771 517.137 12.3317 517.485 12.4854ZM467.601 12.0898C467.446 12.0379 464.587 12.0896 464.456 12.125C462.753 12.6003 468.66 12.4853 467.601 12.0898ZM256.64 11.9316C256.627 11.9327 256.614 11.9336 256.602 11.9346C256.598 11.8396 256.595 11.7444 256.592 11.6494C256.606 11.6494 256.62 11.6495 256.635 11.6494C257.811 11.6447 259.004 11.6395 260.211 11.6348C259.005 11.7335 257.814 11.8329 256.64 11.9316ZM429.279 11.376C424.669 11.0565 426.65 11.5791 421.936 11.5986C421.786 11.8774 428.681 11.626 429.279 11.376ZM486.488 10.8389C484.151 10.5974 483.176 11.841 485.995 11.2734C486.081 11.2547 486.586 10.852 486.488 10.8389ZM539.515 10.7617C538.529 10.2812 546.902 10.414 551.772 10.4922C553.556 10.5185 554.881 10.5383 555.271 10.5244C555.214 10.9422 551.448 10.5702 553.426 11.1182C553.014 11.0544 552.441 11.0155 551.778 10.9932C549.559 10.9117 546.208 11.0383 545.24 10.9785C544.488 10.9323 544.311 10.5746 544.202 10.5645C543.789 10.5291 539.996 10.9898 539.515 10.7617ZM568.117 10.6436C566.654 10.5839 565.073 10.5258 563.667 10.4648C565.316 10.3963 567.205 10.3238 568.906 10.2539C568.644 10.3837 568.381 10.5137 568.117 10.6436ZM576.222 10.1543C574.816 10.8616 572.231 10.2492 569.954 10.4297C569.833 10.0273 574.992 10.265 576.222 10.1543ZM514.162 9.51172C519.068 9.36812 513.963 10.0533 512.715 9.78809C511.973 9.62907 513.66 9.52693 514.162 9.51172ZM523.221 9.28907C522.517 9.33004 521.81 9.3711 521.1 9.41212C522.879 9.51715 524.64 9.62221 526.378 9.72754C523.619 9.67839 520.729 9.63 518.001 9.58008C518.515 9.33977 519.028 9.09967 519.538 8.85938C520.724 9.00304 521.996 9.14593 523.221 9.28907ZM501.441 9.25001C503.666 8.81351 508.355 8.73233 506.705 9.57325C504.219 9.21582 502.633 9.55426 499.079 9.37208C499.598 9.2087 500.116 9.0452 500.633 8.88184C500.635 8.88181 500.638 8.88187 500.641 8.88184C500.908 9.00457 501.175 9.12727 501.441 9.25001ZM516.399 8.98829C519.617 9.42449 510.297 9.36834 513.227 9.02442C513.369 9.00857 516.277 8.97161 516.399 8.98829ZM492.754 8.6836C489.984 8.74551 487.169 8.80786 484.357 8.87012C484.459 8.77406 484.561 8.6781 484.662 8.58204C487.384 8.5213 490.088 8.46069 492.761 8.4004C492.759 8.4948 492.756 8.5892 492.754 8.6836ZM531.061 7.02149C522.465 6.67728 533.455 6.08289 535.657 6.70801C535.66 6.70744 535.663 6.70664 535.665 6.70606C535.86 6.76143 535.452 7.04473 535.776 7.15333C534.919 7.03758 534.056 6.92133 533.187 6.80567C532.396 6.97138 531.601 7.13793 530.801 7.30372C530.536 7.24528 530.271 7.18636 530.005 7.12794C530.358 7.09257 530.71 7.05684 531.061 7.02149ZM545.217 6.75782C543.957 6.83608 542.81 6.91353 541.585 6.99122C541.429 6.91345 541.273 6.83558 541.116 6.75782C542.05 6.66767 542.975 6.57734 543.892 6.48731C544.318 6.57779 544.764 6.66767 545.217 6.75782ZM565.507 6.35547C573.353 6.30321 565.241 7.10718 561.531 6.6045C561.58 6.47672 564.763 6.36054 565.507 6.35547ZM294.783 5.25782C293.923 5.22606 294.333 5.44867 294.259 5.45313C293.694 5.45491 293.162 5.27598 292.946 5.29883C288.981 5.73319 291.625 5.88659 291.664 5.93067C291.751 6.15574 290.712 6.4364 292.161 6.67383C293.038 6.5808 293.919 6.48756 294.805 6.39454C295.247 6.51394 295.69 6.63353 296.134 6.75294C297.901 6.45769 295.583 6.41644 295.316 6.06251C295.214 5.92321 296.871 5.73082 294.783 5.25782ZM505.074 5.98926C503.085 5.924 500.577 6.83789 506.928 6.53419C506.923 6.43923 506.919 6.34398 506.915 6.24903C506.663 6.26702 505.923 6.36406 505.882 6.35743C505.766 6.33412 505.899 6.01629 505.074 5.98926ZM213.337 6.13575C214.12 6.179 214.966 6.22067 215.707 6.26563C215.963 6.10075 216.221 5.93638 216.48 5.77149C215.461 5.89181 214.402 6.01318 213.337 6.13575ZM343.62 3.89161C339.09 3.34351 334.035 4.02382 337.328 4.86915C335.929 4.79747 329.639 5.09949 329.245 5.07813C328.663 5.04545 328.862 4.70637 328.135 4.70704C327.698 4.708 326.599 5.49152 323.164 4.86426C322.727 4.99634 322.29 5.12867 321.854 5.26075C321.443 5.16239 321.032 5.06418 320.621 4.96583C321.459 4.58446 322.298 4.20265 323.141 3.8213C319.79 4.26775 317.033 3.54924 315.036 4.2129C313.261 4.16274 312.406 4.1014 313.159 3.76563C312.629 3.77283 312.099 3.77991 311.571 3.78712C311.228 3.96592 310.885 4.14444 310.542 4.32325C311.962 4.39664 313.39 4.47051 314.825 4.54395C314.804 4.78256 314.783 5.02116 314.762 5.25977C313.994 5.20589 313.228 5.15251 312.464 5.09864C312.198 5.21098 311.932 5.32321 311.667 5.43555C312.616 5.69449 313.568 5.95394 314.523 6.2129C315.669 6.10237 316.775 5.99203 317.908 5.88184C317.387 5.76307 316.868 5.64416 316.349 5.5254C319.103 5.34963 318.51 5.93691 320.811 6.12794C321.595 5.89671 322.383 5.66579 323.172 5.43458C324.33 5.64123 325.455 5.84858 326.591 6.05567C328.493 5.92718 328.66 5.75575 327.374 5.51954C328.317 5.2184 329.363 5.65896 330.509 5.52637C330.603 5.51566 330.422 5.24637 330.505 5.24122C336.469 4.98073 336.112 5.70155 337.067 5.71973C337.731 5.73203 340.386 5.21618 340.431 5.05079C340.482 4.82845 334.908 4.02419 343.62 3.89161ZM297.965 5.63477C299.87 5.81297 301.793 5.99166 303.732 6.16993C303.729 5.91799 303.725 5.66601 303.722 5.41407C301.785 5.48789 299.866 5.56087 297.965 5.63477ZM218.611 6.09571C219.241 6.11004 219.914 6.12405 220.506 6.13965C220.914 6.05269 221.325 5.96492 221.739 5.87794C221.158 5.81576 220.582 5.75361 220.013 5.69141C219.551 5.82595 219.074 5.96095 218.611 6.09571ZM256.971 4.91114C256.854 4.91214 256.697 4.92156 256.515 4.93751C255.333 5.03604 253.167 5.37707 253.277 5.49708C254.349 5.62923 255.434 5.76142 256.532 5.89356C256.686 5.9132 256.84 5.93349 256.994 5.95313C256.995 5.7004 256.996 5.44708 256.997 5.19434C257.168 5.31706 257.34 5.43979 257.512 5.56251C258.193 5.45595 258.879 5.34973 259.57 5.24317C259.923 5.45773 260.277 5.67217 260.633 5.88672C260.982 5.62856 261.332 5.37047 261.684 5.11231C258.297 4.72394 258.448 5.16822 257.754 5.17579C257.405 5.17982 257.183 5.02772 257.059 4.95118C257.029 4.93798 257 4.92433 256.971 4.91114ZM299.259 4.00782C295.313 4.0013 292.923 4.70162 290.061 4.18751C291.91 5.34425 303.943 3.94813 308.181 4.87891C308.615 4.68285 309.05 4.4861 309.486 4.29004C307.187 4.49087 305.62 4.12128 304.467 4.08106C303.567 4.04904 303.662 4.24612 303.594 4.24512C303.591 4.24517 303.587 4.24508 303.584 4.24512C301.479 4.19287 300.832 4.01021 299.259 4.00782ZM461.738 3.99805C458.084 4.27789 462.891 4.46452 461.233 4.85743C461.931 4.81791 462.628 4.77876 463.323 4.73926C462.796 4.49243 462.267 4.24487 461.738 3.99805ZM455.157 3.31251C454.572 3.71654 453.129 4.23439 454.556 4.61817C454.557 4.61815 454.559 4.61819 454.561 4.61817C454.824 4.68825 455.894 4.71665 456.231 4.81544C458.595 4.25975 457.678 3.72221 455.157 3.31251ZM444.411 4.00001C442.671 3.6496 442.053 4.45388 442.324 4.4961C443.852 4.72733 445.315 4.18239 444.411 4.00001ZM323.675 4.14551C324.116 4.24957 324.559 4.35379 324.989 4.45801C325.757 4.31995 326.526 4.182 327.297 4.04395C326.878 3.95769 326.459 3.87142 326.041 3.78516C325.254 3.90533 324.479 4.02505 323.675 4.14551ZM574.583 3.16016C574.907 3.23934 573.872 3.54627 574.115 3.62598C574.344 3.69524 577.504 3.95082 576.656 4.45801C576.132 4.44446 575.622 4.43062 575.098 4.417C574.919 4.2838 574.74 4.14979 574.56 4.01661C574.052 4.14885 573.539 4.28176 573.022 4.41407C572.146 4.09122 570.247 3.68316 572.481 3.37989C571.667 3.41953 570.823 3.45922 570.057 3.49805C569.652 3.66388 569.244 3.83024 568.833 3.9961C569.046 3.74883 569.258 3.50118 569.47 3.25391C571.087 3.22408 572.918 3.19136 574.583 3.16016ZM579.834 3.65626C580.06 3.6168 580.132 2.61396 582.442 3.61719C583.153 3.54366 583.854 3.46989 584.543 3.39649C584.725 3.61462 584.906 3.83265 585.086 4.05079C582.416 3.91922 582.084 4.37027 581.893 4.38282C581.022 4.43724 581.663 4.19819 581.103 4.20313C579.676 4.2163 576.222 4.41896 577.776 3.74122C578.337 3.49856 579.617 3.69514 579.834 3.65626ZM467.371 3.58204C467.088 3.54033 462.638 3.35808 462.267 3.42579C462.445 3.61278 462.624 3.80032 462.802 3.98731C464.884 3.27426 466.997 4.2404 468.04 4.02442C468.265 3.97698 467.804 3.64879 467.371 3.58204ZM599.475 2.87305C599.372 3.00118 599.283 3.1289 599.19 3.25684C602.198 2.97067 606.75 2.79451 604.161 3.63575C600.194 3.77577 596.116 3.91017 592.161 4.03907C591.888 3.94843 591.613 3.8582 591.336 3.76758C594.407 4.0847 593.395 2.54307 595.997 2.94727C596.438 3.01578 595.186 3.58174 597.938 3.18653C597.839 3.06134 597.74 2.93574 597.641 2.81055C598.264 2.83128 598.86 2.85243 599.475 2.87305ZM367.773 4.02149C368.48 4.0004 369.187 3.97909 369.895 3.95801C370.057 3.77919 370.22 3.59973 370.383 3.4209C369.512 3.62079 368.642 3.82158 367.773 4.02149ZM293.515 3.46094C293.406 3.56082 293.296 3.66087 293.188 3.76075C295.751 3.63114 300.607 3.94123 300.535 3.2793C298.21 3.33918 295.879 3.39961 293.515 3.46094ZM589.354 3.49805C587.722 3.1249 591.328 3.01655 592.4 3.1836C592.589 3.22055 591.04 3.88476 589.354 3.49805ZM313.527 2.74708C312.978 2.71452 310.751 2.65036 311.022 2.89454C311.988 3.05712 312.957 3.22022 313.93 3.38282C314.378 3.26691 314.838 3.15092 315.277 3.03516C314.656 3.00611 313.674 2.75577 313.527 2.74708ZM608.739 2.86426C611.458 2.77174 617.834 2.44777 618.546 3.03907C616.6 3.15224 607.609 3.4793 607.084 3.06739C607.52 2.94781 607.949 2.82846 608.368 2.70899C608.783 2.67599 608.557 2.87072 608.735 2.86426C608.737 2.86424 608.738 2.86429 608.739 2.86426ZM624.734 2.45801C619.806 2.45625 625.2 1.80564 626.124 2.13672C626.122 2.1368 626.121 2.13665 626.119 2.13672C628.63 3.06789 623.298 2.80818 622.958 2.81348C622.512 2.83806 621.479 3.62669 619.069 2.59962C620.95 2.56209 622.886 2.51728 624.734 2.45801ZM465.219 2.46387C464.147 2.17542 462.27 2.22653 462.253 2.66505C463.3 2.78043 464.345 2.89531 465.388 3.01075C465.173 2.90082 465.402 2.51322 465.219 2.46387ZM541.004 2.97169C539.609 2.97117 538.189 2.97106 536.765 2.97071C542.173 2.71221 537.745 2.66862 540.996 2.35352C540.999 2.55947 541.001 2.76573 541.004 2.97169ZM549.911 2.52735C549.139 2.66363 548.361 2.80016 547.575 2.93653C547.616 2.72347 547.657 2.50994 547.698 2.29688C548.086 2.25265 548.472 2.20827 548.856 2.16407C549.209 2.28502 549.561 2.40638 549.911 2.52735ZM474.308 2.06055C475.236 2.91599 476.869 2.0559 478.641 2.74805C479.294 2.74636 479.947 2.74484 480.598 2.74317C480.599 2.74315 480.601 2.74319 480.603 2.74317C480.618 2.50687 480.632 2.27048 480.647 2.03419C478.548 2.043 476.406 2.05177 474.308 2.06055ZM527.323 0.995123C527.158 1.56556 526.994 2.13659 526.828 2.70704C526.997 2.57825 527.166 2.4491 527.334 2.32032C528.695 2.3047 530.137 2.28776 531.543 2.27149C530.647 1.84128 529.743 1.41159 528.837 0.981451C528.334 0.986136 527.829 0.990412 527.323 0.995123ZM485.765 1.86036C483.468 1.77728 482.633 2.53893 485.548 2.5088C486.787 2.49514 488.171 1.94714 485.765 1.86036ZM525.196 1.50098C524.359 1.36797 522.361 1.5152 523.227 1.88379C523.384 1.9492 525.362 1.66083 524.208 2.35743C526.135 2.32485 525.673 1.57754 525.196 1.50098ZM507.391 1.69337C506.515 1.51293 502.989 2.14493 506.169 2.26075C508.186 2.33414 507.522 1.72162 507.391 1.69337ZM447.534 1.59571C439.999 2.01564 444.282 2.43975 446.837 1.95118C447.347 1.85424 447.625 1.72592 447.534 1.59571ZM512.083 1.45118C508.787 1.12572 511.234 2.93841 515.269 1.70118C511.229 1.90999 512.277 1.47107 512.083 1.45118ZM535.98 1.46192C535.892 1.62109 535.804 1.78028 535.716 1.93946C535.03 1.91561 534.339 1.89196 533.646 1.86817C533.818 1.70905 533.991 1.54974 534.163 1.39063C534.772 1.4143 535.378 1.43821 535.98 1.46192ZM541.478 0.164068C541.561 0.164426 541.635 0.427792 542.299 0.429693C544.621 0.436405 547.958 0.50132 549.632 0.497076C550.176 0.495623 550.866 0.483363 551.649 0.46485C557.039 0.341298 566.611 -0.0540584 567.999 0.590826C568.31 0.747642 567.604 1.23672 567.73 1.25977C568.109 1.32376 570.201 1.06318 569.816 1.42188C567.802 1.44611 565.559 1.47202 563.561 1.49512C564.064 1.23926 564.544 0.983601 565.059 0.727545C559.951 0.926894 561.617 0.889981 560.126 1.45215C559.23 1.25317 558.312 1.05426 557.467 0.854498C555.594 1.08953 553.672 1.32487 551.7 1.56055C552.146 1.39742 552.59 1.23439 553.03 1.07129C552.44 1.02005 551.997 0.986603 551.655 0.968756C550.366 0.896656 550.622 1.07761 549.378 1.39844C549.373 1.24084 549.368 1.08241 549.363 0.924811C546.598 1.34262 546.018 0.877286 545.402 0.878912C544.079 0.885444 542.665 2.76852 537.793 0.969732C535.753 1.88616 535.832 0.0688654 534.662 1.00587C531.28 0.0401368 537.678 0.329914 540.795 0.326178C540.796 0.326162 540.798 0.326193 540.799 0.326178C541.029 0.326302 540.663 0.160566 541.478 0.164068ZM524.013 1.292C526.077 0.449215 517.881 0.465209 520.595 1.61719C521.003 1.651 521.411 1.68494 521.817 1.71876C522.554 1.57637 523.287 1.43433 524.017 1.292C524.015 1.29201 524.014 1.29198 524.013 1.292Z" fill="#F1C93C"/>
</svg>
