<svg width="696" height="589" viewBox="0 0 696 589" fill="none" xmlns="http://www.w3.org/2000/svg">
<path d="M1.23382e-05 160.267C1.23382e-05 233.244 5.44001 324.558 7.1172 343.646C13.826 415.427 7.51686 473.212 35.1905 534.508C47.2663 561.393 70.5755 560.247 89.36 566.162C175.065 593.853 272.529 588.476 359.575 588.745C411.736 589.014 463.729 587.401 515.722 584.175C561.006 581.217 611.825 586.056 655.6 566.162C699.878 545.999 697.027 468.081 695.112 408.202C692.093 313.838 688.235 219.474 683.707 125.111C681.862 86.6661 678.788 3.20513 646.082 2.93629C566.416 2.12976 469.935 -3.24709 390.771 2.93629C332.573 7.50662 274.374 12.8835 216.008 13.1524C183.47 13.4212 64.2772 13.1524 31.2365 13.1524C-1.80417 13.1524 2.76781 63.9004 1.23382e-05 160.267Z" fill="#EFEFEF"/>
</svg>
