<svg width="236" height="99" viewBox="0 0 236 99" fill="none" xmlns="http://www.w3.org/2000/svg">
<path d="M59.6609 41.5755C48.0658 37.5386 36.1874 34.1541 24.9819 29.2406C17.175 25.8083 10.2119 20.3874 3.06795 15.5725C1.62371 14.6112 0.613256 12.5025 0.166569 10.7418C-0.209051 9.26855 0.0443618 7.02904 0.986098 6.05038C1.63797 5.3648 4.19009 5.78011 5.46449 6.48635C13.9533 11.148 22.0462 16.6546 30.8437 20.6261C38.8152 24.2226 47.4573 26.4087 55.931 28.7722C57.4079 29.1763 60.4062 27.8518 61.1565 26.4782C66.7008 16.2871 74.801 8.85114 85.6387 5.20304C93.393 2.58809 101.672 1.17446 109.845 0.1488C118.019 -0.876855 125.207 3.50328 128.395 10.3491C130.363 14.5967 130.542 18.757 127.457 22.7539C118.329 34.6009 105.364 38.3073 91.3185 39.5582C85.2398 40.0994 79.0925 40.0706 72.3754 40.3179C74.1099 46.8403 78.8773 50.3794 84.2294 52.9314C95.6441 58.3936 108.095 59.0301 120.443 59.3852C131.709 59.6976 142.996 59.5537 154.256 59.343C158.65 59.2645 163.082 58.7196 167.371 57.8227C168.8 57.5284 170.566 55.6729 170.968 54.204C175.306 38.3502 181.243 33.0184 197.568 30.991C202.281 30.4039 207.036 29.9922 211.78 29.622C216.292 29.2778 219.869 31.314 221.796 35.1631C223.568 38.7018 223.289 42.3493 221.163 46.1769C215.535 56.345 206.099 60.4513 195.657 63.3136C191.608 64.4253 187.596 65.6808 182.95 67.0609C187.067 77.736 195.002 83.6015 205.132 85.8225C212.79 87.5009 220.911 87.1017 228.795 87.844C231.03 88.0532 233.185 88.9857 235.888 89.7254C231.972 97.4719 224.958 97.1614 219.447 97.8727C200.321 100.34 178.868 88.7645 173.169 72.4283C172.138 69.4649 170.185 68.8857 167.39 69.3573C153.155 71.7927 138.857 71.0677 124.482 70.6198C111.396 70.2265 98.4083 69.9645 85.9899 65.598C75.498 61.9076 66.1121 56.4196 61.7486 45.275C61.1234 43.6739 60.6679 42.0001 60.1276 40.3627L59.6812 41.6109L59.6609 41.5755ZM118.311 14.4716C107.955 6.29004 77.043 17.0765 74.1642 29.1291C90.3555 28.7931 106.553 28.6525 118.311 14.4716ZM182.064 54.5891C197.835 51.412 206.245 47.1144 208.318 41.0681C197.826 42.0849 186.779 41.5195 182.064 54.5891Z" fill="#EFCAEA"/>
</svg>
