<svg width="1033" height="269" viewBox="0 0 1033 269" fill="none" xmlns="http://www.w3.org/2000/svg">
<path d="M0 73.1952C0 106.524 8.07397 148.228 10.5633 156.945C20.5204 189.728 11.1565 216.119 52.2296 244.113C70.1525 256.392 104.748 255.868 132.628 258.57C259.83 271.216 404.487 268.761 533.68 268.883C611.097 269.006 688.264 268.27 765.432 266.796C832.643 265.446 908.068 267.656 973.038 258.57C1038.76 249.361 1034.52 213.775 1031.68 186.428C1027.2 143.332 1021.48 100.235 1014.75 57.1388C1012.02 39.5809 1007.45 1.46381 958.912 1.34103C840.671 0.972687 697.475 -1.48297 579.981 1.34103C493.603 3.42834 407.224 5.884 320.597 6.00677C272.305 6.12955 95.3999 6.00677 46.3611 6.00677C-2.67773 6.00677 4.10791 29.1837 0 73.1952Z" fill="#EFEFEF"/>
</svg>
