<svg width="1371" height="1711" viewBox="0 0 1371 1711" fill="none" xmlns="http://www.w3.org/2000/svg">
<path fill-rule="evenodd" clip-rule="evenodd" d="M1236.25 463.416C1196.33 344.452 1195.11 202.365 1012.07 62.8285C910.511 -46.9368 710.691 11.8897 541.094 53.894C371.496 95.8982 177.589 178.287 51.4367 287.677C-35.0019 379.113 4.804 595.208 45.7299 758.271C109.932 1014.08 116.109 1038.69 185.071 1255.97C246.273 1448.79 334.992 1653 439.039 1673.19C628.069 1741.34 819.498 1705.5 966.079 1657.62C1089.45 1617.32 1231.55 1573 1305.15 1458.68C1377.35 1346.52 1379.95 1181.78 1359.59 994.95C1324.05 813.278 1298.46 711.308 1236.25 463.416Z" fill="#EFEFEF"/>
</svg>
