<svg width="291" height="283" viewBox="0 0 291 283" fill="none" xmlns="http://www.w3.org/2000/svg" xmlns:xlink="http://www.w3.org/1999/xlink">
<path d="M68.4666 256.938C77.412 266.084 88.803 276.382 101.32 280.462C132.019 290.593 166.359 259.769 188.049 241.83C220.323 215.094 248.407 183.771 276.233 152.557C274.138 155.01 272.043 157.462 269.947 159.914C277.116 153.553 283.87 142.579 287.967 133.96C292.996 123.449 289.536 110.859 279.749 104.239C252.977 86.2334 225.653 69.0743 198.675 51.3702C175.512 36.0941 152.444 13.9719 126.875 3.20375C115.656 -1.5525 102.353 -0.901537 91.4122 4.41645C81.8276 9.12403 73.8826 17.9526 66.0424 25.0274C59.2642 31.1599 52.4861 37.2924 45.7744 43.3659C38.9962 49.4984 32.218 55.6308 25.5062 61.7044C16.0729 70.1926 6.69103 78.8725 2.86211 91.4043C-12.231 139.911 35.7111 223.362 68.4666 256.938Z" fill="url(#pattern0_4148_518)"/>
<defs>
<pattern id="pattern0_4148_518" patternUnits="userSpaceOnUse" patternTransform="matrix(20.4617 0.864518 -0.864518 20.4617 -6.03688 -6.69407)" preserveAspectRatio="none" viewBox="0 0 64 64" width="1" height="1">
<g id="pattern0_4148_518_inner">
<g clip-path="url(#clip0_4148_518)">
<circle cx="32" cy="32" r="8" fill="#73BFCE"/>
</g>
</g>
</pattern><clipPath id="clip0_4148_518">
<rect width="64" height="64" fill="white"/>
</clipPath>
</defs>
</svg>
