<svg width="312" height="121" viewBox="0 0 312 121" fill="none" xmlns="http://www.w3.org/2000/svg">
<path d="M44.0239 38.6339C37.3139 38.222 30.8557 37.8809 24.4137 37.3981C22.9117 37.2797 21.3597 36.8773 19.9677 36.2837C14.5143 33.9637 9.07265 31.6021 3.71361 29.0724C2.40996 28.4585 1.20904 27.3111 0.404445 26.14C-0.0918749 25.4268 -0.150929 23.914 0.335804 23.2746C0.729724 22.7553 2.34572 22.6356 3.17891 22.9485C7.77093 24.6777 12.2759 26.6748 16.8562 28.4457C26.2189 32.0667 35.9304 31.4209 45.5862 30.9732C46.2081 30.9454 46.8055 29.7859 47.2879 29.0777C53.1933 20.3762 58.635 11.1394 68.93 6.48391C74.7081 3.86649 80.844 1.6984 87.0749 0.243188C92.886 -1.10499 98.0278 3.33234 99.0889 9.22163C100.371 16.3429 98.4539 21.6091 91.9903 25.8676C82.1503 32.3497 71.4765 36.1675 59.6034 37.3197C52.3573 38.0171 50.5431 40.6909 52.9535 47.5781C55.1361 53.805 60.0815 56.8823 66.4035 58.4226C76.9584 60.9949 87.2196 60.1998 97.7764 57.2603C95.1751 46.4721 98.9113 37.7573 105.891 30.3589C113.692 22.1 123.978 19.8719 135.316 21.5056C141.649 22.419 145.452 29.2251 144.15 35.1592C141.876 45.5222 136.051 52.5926 126.019 56.4785C119.819 58.8759 113.468 60.9273 107.138 63.1535C111.457 79.4304 134.937 89.6287 156.588 84.9469C156.049 79.2157 154.606 73.5114 155.162 68.0429C156.482 55.1953 169.288 37.4421 187.355 35.0495C193.06 34.2901 198.739 34.6712 203.6 38.1746C205.004 39.1879 206.137 41.1261 206.539 42.8029C209.382 54.5815 199.724 73.5682 188.709 79.4838C182.312 82.9172 176.487 87.2989 170.13 91.4299C174.316 101.37 202.683 106.743 218.351 97.972C217.641 96.2538 216.357 94.4756 216.232 92.6518C215.267 78.6448 217.138 65.4344 229.298 56.1169C234.01 52.5024 240.054 51.9624 245.912 53.1809C252.059 54.4585 255.802 62.5301 253.017 69.8359C250.647 76.0434 247.266 82.0231 243.366 87.4522C239.89 92.3025 235.081 96.2611 230.487 101.011C233.872 104.64 238.293 108.616 244.401 110.793C256.85 115.237 269.338 114.46 281.632 111.728C288.786 110.138 295.614 107.231 302.462 104.633C304.418 103.889 305.952 102.171 307.882 100.767C308.954 101.406 310.097 102.087 311.493 102.918C308.791 109.089 303.281 112.434 297.475 114.391C280.857 119.992 263.675 123.14 245.885 118.748C239.005 117.051 232.677 113.81 227.761 108.401C225.624 106.046 223.642 104.566 219.367 106.121C202.368 112.279 176.11 110.536 162.845 93.905C161.841 92.6443 158.864 92.1451 156.936 92.3233C147.068 93.2739 137.328 93.1805 127.756 89.928C116.114 85.9703 106.913 79.1662 101.19 68.4792C99.7115 65.7127 98.4082 64.7614 94.8328 65.2979C86.9761 66.4875 78.9739 67.1861 70.9986 67.2849C60.2373 67.422 45.4545 56.698 44.1978 44.9489C43.97 42.8599 44.0809 40.7424 44.0348 38.637L44.0239 38.6339ZM164.776 83.0405C166.479 82.3603 167.913 81.9197 169.223 81.2527C175.864 77.8765 182.97 75.0699 188.971 70.8614C197.285 65.0192 199.343 55.7203 200.026 46.2712C200.328 42.0025 197.144 40.0953 192.537 40.8592C182.701 42.4938 174.919 47.1132 169.302 54.9168C163.259 63.3097 159.413 72.1624 164.787 83.0436L164.776 83.0405ZM104.709 56.2498C111.052 54.1849 116.882 52.392 122.63 50.3849C130.724 47.5521 135.297 41.4911 137.678 33.9028C138.911 29.9746 137.014 27.9003 132.702 27.3185C127.197 26.5701 122.296 28.084 117.909 31.0025C109.15 36.8321 103.3 44.2442 104.706 56.2602L104.709 56.2498ZM225.388 94.4035C232.347 89.643 238.773 84.3839 242.371 76.8339C244.419 72.5272 245.496 67.6886 246.408 62.9725C246.93 60.2731 244.698 59.2635 242.039 59.7761C237.33 60.6914 233.162 62.4114 230.194 66.291C226.531 71.089 224.59 76.4834 223.828 82.3891C223.314 86.3172 222.328 90.2475 225.388 94.4035ZM56.2409 29.3662C56.5793 29.675 56.9315 29.9765 57.2699 30.2853C68.6351 29.7217 81.4229 24.8105 89.4496 17.9313C91.6908 16.0075 93.4406 9.10809 91.5504 8.22818C89.4063 7.24317 86.0833 7.17562 83.9257 8.088C78.4829 10.3947 72.8751 12.8687 68.3238 16.4158C63.6862 20.0175 60.2209 24.9947 56.2409 29.3662Z" fill="#97BF34" fill-opacity="0.65"/>
</svg>
