<svg width="599" height="407" viewBox="0 0 599 407" fill="none" xmlns="http://www.w3.org/2000/svg">
<path d="M597.704 146.576C598.027 130.634 598.059 115.1 597.969 99.1414C597.788 81.9195 598.036 64.2947 595.71 49.0877C590.069 11.917 576.56 15.1641 564.418 15.1061C485.559 16.6208 406.967 11.0082 328.282 7.91113C249.183 4.7978 169.6 -3.79292 90.4454 1.90888C74.2594 2.95128 42.5118 -3.20727 13.0118 14.7928C4.28064 20.1203 5.20541 26.0296 2.51178 38.2927C0.205413 48.7927 0.994068 57.59 0.474023 71.4253C-1.89385 138.092 5.48748 198.966 3.39522 265.643C2.90267 282.418 2.288 298.769 1.79545 315.545C1.23986 333.997 0.944251 352.88 4.81815 367.308C11.2392 391.073 25.2005 394.142 35.1498 397.473C55.8595 404.586 78.5118 409.293 103.512 403.793C126.512 400.473 132.942 398.681 154.948 397.028C242.846 389.991 330.871 379.599 418.613 376.755C468.348 375.353 518.068 374.371 567.803 372.97C574.433 372.811 581.001 359.634 583.533 339.999C591.393 277.748 596.364 211.604 597.704 146.576Z" fill="white"/>
</svg>
