<svg width="247" height="95" viewBox="0 0 247 95" fill="none" xmlns="http://www.w3.org/2000/svg">
<path d="M211.361 15.0773C216.634 13.8539 221.708 12.7069 226.773 11.484C227.954 11.1957 229.181 10.7429 230.287 10.2083C234.621 8.11675 238.947 6.00395 243.212 3.81054C244.249 3.27781 245.219 2.46541 245.879 1.69878C246.285 1.23096 246.368 0.386138 246.002 0.104971C245.706 -0.123558 244.441 0.0501627 243.78 0.346739C240.136 1.98389 236.554 3.75623 232.918 5.41469C225.486 8.80544 217.884 9.88979 210.321 11.0754C209.834 11.1523 209.394 10.6002 209.032 10.2804C204.612 6.34776 200.568 2.05051 192.605 1.00546C188.137 0.416426 183.376 0.128839 178.524 0.249322C173.999 0.366655 169.858 3.58211 168.883 6.99441C167.704 11.1203 169.08 13.7463 174.046 15.1406C181.607 17.2626 189.887 17.7885 199.172 16.6632C204.839 15.9732 206.197 17.1817 204.139 21.3457C202.276 25.1111 198.322 27.5457 193.326 29.3352C184.984 32.3233 176.955 33.4068 168.745 33.349C171.048 27.0006 168.329 22.7387 163.034 19.6858C157.116 16.279 149.102 16.5742 140.168 19.1598C135.179 20.6045 132.03 24.9304 132.907 28.0168C134.44 33.4065 138.837 36.4496 146.611 37.1084C151.416 37.5132 156.348 37.7043 161.259 37.9954C157.477 47.6319 138.811 56.7529 121.942 57.3787C122.504 54.1313 123.775 50.7644 123.471 47.8248C122.748 40.9202 113.134 33.0092 99.0203 34.3683C94.5641 34.7952 90.1 35.8487 86.2019 38.5064C85.0761 39.2747 84.1409 40.5139 83.7843 41.5004C81.2685 48.4319 88.3829 57.4919 96.8794 59.1265C101.814 60.0746 106.276 61.6317 111.162 62.9714C107.638 69.086 85.2562 76.2655 73.1799 73.7434C73.7784 72.6885 74.8284 71.5153 74.9709 70.4887C76.0677 62.6043 74.9217 55.581 65.6097 52.2362C62.0014 50.9379 57.2733 51.5365 52.6492 53.0792C47.7959 54.6977 44.6642 59.7141 46.6715 63.3384C48.38 66.4173 50.8867 69.2203 53.8134 71.6421C56.4228 73.8067 60.0985 75.2808 63.5867 77.2242C60.8434 79.732 57.2789 82.5856 52.4354 84.6955C42.5619 88.999 32.7853 90.423 23.2087 90.7373C17.6356 90.9206 12.3505 90.3271 7.04266 89.9074C5.52586 89.7867 4.3645 89.0651 2.88493 88.5755C2.02837 89.0877 1.11531 89.6338 2.23894e-05 90.3003C1.96985 93.3095 6.21075 94.3404 10.7167 94.5607C23.6162 95.1896 37.0165 94.3795 51.0777 89.312C56.5157 87.3529 61.5583 84.6226 65.5457 80.9037C67.279 79.2848 68.8693 78.1732 72.1847 78.3981C85.3695 79.2782 106.008 74.4181 116.817 63.2581C117.635 62.4123 119.982 61.6946 121.49 61.507C129.207 60.5679 136.849 59.0707 144.437 55.8525C153.665 51.9375 161.047 46.8116 165.796 40.0558C167.022 38.3075 168.068 37.5883 170.859 37.3542C176.993 36.8456 183.253 36.0441 189.506 34.9151C197.944 33.3938 209.8 25.2731 211.071 18.5932C211.3 17.4049 211.265 16.2511 211.352 15.0807L211.361 15.0773ZM115.566 57.5403C114.247 57.417 113.132 57.3865 112.121 57.2121C106.994 56.3318 101.488 55.8354 96.8833 54.4001C90.5039 52.4051 89.1153 47.5714 88.8089 42.4506C88.6756 40.1363 91.2194 38.6097 94.8151 38.348C102.49 37.7917 108.482 39.1898 112.699 42.6689C117.235 46.4105 120.037 50.7324 115.557 57.5436L115.566 57.5403ZM163.332 33.8194C158.407 33.6195 153.878 33.4939 149.417 33.2377C143.137 32.8734 139.698 30.2023 138.015 26.3618C137.142 24.3739 138.681 22.946 142.077 21.9845C146.414 20.7538 150.221 20.8631 153.591 21.8251C160.32 23.7469 164.729 26.9751 163.334 33.8247L163.332 33.8194ZM67.7466 72.8156C62.4037 71.2174 57.4911 69.2646 54.8523 65.6259C53.35 63.5498 52.6232 61.0354 52.0224 58.5643C51.6782 57.15 53.4532 56.2608 55.5267 56.1495C59.1984 55.9564 62.4258 56.2884 64.6595 57.9921C67.4162 60.1002 68.8077 62.7934 69.2621 65.9442C69.5694 68.0389 70.2476 70.0647 67.7466 72.8156ZM202.003 11.7685C201.73 11.9894 201.446 12.2083 201.173 12.4292C192.272 13.8044 182.361 12.988 176.232 10.3774C174.521 9.64674 173.316 6.09339 174.82 5.32657C176.526 4.46399 179.134 3.93348 180.804 4.1175C185.017 4.58456 189.356 5.1196 192.84 6.4045C196.39 7.70676 198.987 9.94324 202.003 11.7685Z" fill="#109C7F" fill-opacity="0.65"/>
</svg>
