<svg width="600" height="353" viewBox="0 0 600 353" fill="none" xmlns="http://www.w3.org/2000/svg">
<path d="M597.457 207.699C596.426 196.144 594.953 184.588 593.48 173.193C587.589 130.34 588.767 74.006 564.465 37.4128C553.861 21.3632 536.482 18.4743 519.986 14.9434C444.724 -1.58773 365.191 0.177745 288.75 0.0172503C242.945 -0.143245 197.287 0.819703 151.629 2.74566C111.863 4.51112 67.2358 1.62221 28.7947 13.4989C-10.0882 25.5361 1.10543 74.969 2.72555 108.031C5.37666 164.365 8.76417 220.699 12.7408 277.034C14.3609 299.985 21.5778 346.85 50.2982 347.01C120.258 347.492 191.838 353.43 261.356 349.738C312.463 347.01 363.571 343.8 414.825 343.64C443.398 343.479 585.822 372.689 594.217 328.713C601.434 288.91 601.139 247.984 597.457 207.699Z" fill="white"/>
</svg>
