<svg width="155" height="151" viewBox="0 0 155 151" fill="none" xmlns="http://www.w3.org/2000/svg" xmlns:xlink="http://www.w3.org/1999/xlink">
<path d="M63.4225 1.41914C36.0849 6.87691 10.8916 27.5099 2.98511 54.5325C-1.83916 71.3052 -1.03512 88.6103 7.00534 104.185C8.0774 106.315 9.28343 108.312 10.4895 110.175C13.3037 116.298 17.1899 121.889 21.7462 126.815C34.2089 140.259 49.6196 147.847 67.8446 150.376C96.3882 154.237 127.612 139.86 143.157 116.032C150.125 105.383 154.548 91.5389 154.95 78.7597C155.62 59.9903 149.589 43.8832 138.467 28.9742C121.984 6.47749 90.626 -4.03864 63.4225 1.41914Z" fill="url(#pattern0_4148_522)"/>
<defs>
<pattern id="pattern0_4148_522" patternUnits="userSpaceOnUse" patternTransform="matrix(20.4672 0 0 20.4672 64.4102 62.619)" preserveAspectRatio="none" viewBox="0 0 52.48 52.48" width="1" height="1">
<use xlink:href="#pattern0_4148_522_inner" transform="translate(-52.48 -52.48)"/>
<use xlink:href="#pattern0_4148_522_inner" transform="translate(0 -52.48)"/>
<use xlink:href="#pattern0_4148_522_inner" transform="translate(-52.48 0)"/>
<g id="pattern0_4148_522_inner">
<g clip-path="url(#clip0_4148_522)">
<circle cx="32" cy="32" r="8" fill="#73BFCE"/>
</g>
</g>
</pattern><clipPath id="clip0_4148_522">
<rect width="64" height="64" fill="white"/>
</clipPath>
</defs>
</svg>
