<svg width="32" height="32" viewBox="0 0 32 32" fill="none" xmlns="http://www.w3.org/2000/svg">
<path d="M4 16.0001C4 15.4696 4.21071 14.9609 4.58579 14.5859C4.96086 14.2108 5.46957 14.0001 6 14.0001H21.84L16.5867 8.74675C16.2334 8.36761 16.0411 7.86615 16.0502 7.34802C16.0593 6.82988 16.2692 6.33552 16.6357 5.96909C17.0021 5.60265 17.4965 5.39275 18.0146 5.38361C18.5327 5.37447 19.0342 5.5668 19.4133 5.92008L28.08 14.5867C28.4545 14.9617 28.6649 15.4701 28.6649 16.0001C28.6649 16.5301 28.4545 17.0384 28.08 17.4134L19.4133 26.0801C19.0342 26.4334 18.5327 26.6257 18.0146 26.6165C17.4965 26.6074 17.0021 26.3975 16.6357 26.0311C16.2692 25.6646 16.0593 25.1703 16.0502 24.6521C16.0411 24.134 16.2334 23.6325 16.5867 23.2534L21.84 18.0001H6C5.46957 18.0001 4.96086 17.7894 4.58579 17.4143C4.21071 17.0392 4 16.5305 4 16.0001Z" fill="black"/>
</svg>
