<svg width="190" height="201" viewBox="0 0 190 201" fill="none" xmlns="http://www.w3.org/2000/svg" xmlns:xlink="http://www.w3.org/1999/xlink">
<path d="M188.72 153.8C189.836 145.421 188.122 136.606 185.494 128.625C180.352 113.217 173.992 98.561 165.414 84.7151C155.919 69.5402 145.288 55.1725 132.968 42.0848C120.454 28.7481 106.777 16.4404 92.7967 4.77142C86.015 -0.924921 75.4755 -0.953849 67.5777 1.72862C64.4179 2.51317 61.4819 4.04601 58.9354 6.07709C58.603 6.2166 58.2152 6.43941 57.8827 6.57892C53.7282 8.86367 49.7957 11.1756 46.6151 14.706C43.2134 18.5698 39.867 22.3502 36.5486 26.2692C31.1286 32.6342 26.4867 39.6352 21.9282 46.6914C17.5355 53.4975 13.6428 60.6352 10.0554 67.8553C5.419 77.0196 -0.214813 86.6025 0.00631031 97.3077C0.22834 108.373 4.55148 117.959 11.7282 126.317C16.429 131.713 21.8772 136.525 27.2421 141.282C40.9188 153.59 55.0366 164.87 70.1782 175.15C76.4571 179.433 82.7913 183.633 89.4018 187.416C97.3177 191.944 105.733 196.444 114.585 198.474C124.881 200.861 135.34 201.916 145.734 199.449C155.381 197.206 165.215 192.688 172.492 185.875C181.678 177.087 187.087 166.396 188.72 153.8Z" fill="url(#pattern0_4170_474)"/>
<defs>
<pattern id="pattern0_4170_474" patternUnits="userSpaceOnUse" patternTransform="matrix(16.64 0 0 16.64 -0.214813 -0.953849)" preserveAspectRatio="none" viewBox="0 0 64 64" width="1" height="1">
<g id="pattern0_4170_474_inner">
<g clip-path="url(#clip0_4170_474)">
<circle cx="32" cy="32" r="16" fill="#F1C93C"/>
</g>
</g>
</pattern><clipPath id="clip0_4170_474">
<rect width="64" height="64" fill="white"/>
</clipPath>
</defs>
</svg>
