<svg width="71" height="92" viewBox="0 0 71 92" fill="none" xmlns="http://www.w3.org/2000/svg">
<path d="M1.456 16V4.144H5.344C6.21867 4.144 7.00267 4.26133 7.696 4.496C8.4 4.73067 8.95467 5.12 9.36 5.664C9.776 6.19733 9.984 6.93333 9.984 7.872C9.984 8.768 9.776 9.50933 9.36 10.096C8.95467 10.672 8.40533 11.0987 7.712 11.376C7.02933 11.6533 6.26133 11.792 5.408 11.792H3.824V16H1.456ZM3.824 9.92H5.248C6.05867 9.92 6.66133 9.74933 7.056 9.408C7.46133 9.06667 7.664 8.55467 7.664 7.872C7.664 7.18933 7.45067 6.71467 7.024 6.448C6.608 6.17067 5.98933 6.032 5.168 6.032H3.824V9.92ZM13.3935 16.224C12.8708 16.224 12.4068 16.112 12.0015 15.888C11.6068 15.6533 11.2975 15.3333 11.0735 14.928C10.8602 14.5227 10.7535 14.064 10.7535 13.552C10.7535 12.6027 11.1642 11.8667 11.9855 11.344C12.8068 10.8107 14.1135 10.448 15.9055 10.256C15.8948 9.95733 15.8415 9.696 15.7455 9.472C15.6495 9.23733 15.4895 9.05067 15.2655 8.912C15.0522 8.77333 14.7588 8.704 14.3855 8.704C13.9695 8.704 13.5588 8.784 13.1535 8.944C12.7482 9.104 12.3375 9.312 11.9215 9.568L11.0895 8C11.4415 7.776 11.8148 7.57867 12.2095 7.408C12.6042 7.23733 13.0202 7.09867 13.4575 6.992C13.8948 6.87467 14.3482 6.816 14.8175 6.816C15.5748 6.816 16.2095 6.96533 16.7215 7.264C17.2335 7.56267 17.6175 8.00533 17.8735 8.592C18.1295 9.17867 18.2575 9.904 18.2575 10.768V16H16.3375L16.1775 15.04H16.0975C15.7135 15.3813 15.2975 15.664 14.8495 15.888C14.4015 16.112 13.9162 16.224 13.3935 16.224ZM14.1775 14.384C14.5082 14.384 14.8068 14.3093 15.0735 14.16C15.3508 14 15.6282 13.7813 15.9055 13.504V11.712C15.1802 11.7973 14.6042 11.92 14.1775 12.08C13.7508 12.24 13.4468 12.432 13.2655 12.656C13.0842 12.8693 12.9935 13.1093 12.9935 13.376C12.9935 13.728 13.1002 13.984 13.3135 14.144C13.5375 14.304 13.8255 14.384 14.1775 14.384ZM23.8066 19.888C23.1026 19.888 22.468 19.8027 21.9026 19.632C21.3373 19.472 20.8893 19.2213 20.5586 18.88C20.2386 18.5493 20.0786 18.1173 20.0786 17.584C20.0786 17.2107 20.1853 16.864 20.3986 16.544C20.612 16.224 20.932 15.952 21.3586 15.728V15.648C21.124 15.4987 20.9266 15.3013 20.7666 15.056C20.6173 14.8107 20.5426 14.5013 20.5426 14.128C20.5426 13.7973 20.6386 13.488 20.8306 13.2C21.0333 12.9013 21.268 12.656 21.5346 12.464V12.4C21.2253 12.176 20.948 11.8613 20.7026 11.456C20.4573 11.0507 20.3346 10.5813 20.3346 10.048C20.3346 9.344 20.5 8.752 20.8306 8.272C21.172 7.792 21.62 7.42933 22.1746 7.184C22.7293 6.93867 23.316 6.816 23.9346 6.816C24.2013 6.816 24.4466 6.83733 24.6706 6.88C24.9053 6.92267 25.1186 6.976 25.3106 7.04H28.5266V8.768H27.0066C27.124 8.928 27.22 9.12533 27.2946 9.36C27.3693 9.59467 27.4066 9.85067 27.4066 10.128C27.4066 10.8 27.252 11.3653 26.9426 11.824C26.6333 12.272 26.2173 12.608 25.6946 12.832C25.172 13.056 24.5853 13.168 23.9346 13.168C23.7746 13.168 23.5933 13.152 23.3906 13.12C23.188 13.0773 22.9853 13.024 22.7826 12.96C22.6653 13.0667 22.5693 13.1787 22.4946 13.296C22.4306 13.4027 22.3986 13.552 22.3986 13.744C22.3986 13.968 22.5 14.144 22.7026 14.272C22.916 14.4 23.284 14.464 23.8066 14.464H25.3426C26.42 14.464 27.2466 14.6453 27.8226 15.008C28.3986 15.36 28.6866 15.9253 28.6866 16.704C28.6866 17.312 28.484 17.8507 28.0786 18.32C27.684 18.8 27.1186 19.1787 26.3826 19.456C25.6573 19.744 24.7986 19.888 23.8066 19.888ZM23.9346 11.712C24.2013 11.712 24.4413 11.648 24.6546 11.52C24.868 11.392 25.0386 11.2053 25.1666 10.96C25.2946 10.704 25.3586 10.4 25.3586 10.048C25.3586 9.696 25.2946 9.40267 25.1666 9.168C25.0386 8.92267 24.868 8.74133 24.6546 8.624C24.4413 8.496 24.2013 8.432 23.9346 8.432C23.6786 8.432 23.444 8.496 23.2306 8.624C23.0173 8.74133 22.8466 8.92267 22.7186 9.168C22.6013 9.40267 22.5426 9.696 22.5426 10.048C22.5426 10.4 22.6013 10.704 22.7186 10.96C22.8466 11.2053 23.0173 11.392 23.2306 11.52C23.444 11.648 23.6786 11.712 23.9346 11.712ZM24.1586 18.384C24.6173 18.384 25.012 18.3253 25.3426 18.208C25.684 18.0907 25.9506 17.936 26.1426 17.744C26.3346 17.552 26.4306 17.3387 26.4306 17.104C26.4306 16.784 26.3026 16.5653 26.0466 16.448C25.7906 16.3413 25.4226 16.288 24.9426 16.288H23.8386C23.572 16.288 23.3426 16.2773 23.1506 16.256C22.9586 16.2453 22.7773 16.2187 22.6066 16.176C22.404 16.336 22.2546 16.5013 22.1586 16.672C22.0733 16.8533 22.0306 17.04 22.0306 17.232C22.0306 17.5947 22.2226 17.8773 22.6066 18.08C22.9906 18.2827 23.508 18.384 24.1586 18.384ZM33.7149 16.224C32.8829 16.224 32.1309 16.0373 31.4589 15.664C30.7869 15.2907 30.2482 14.752 29.8429 14.048C29.4482 13.344 29.2509 12.5013 29.2509 11.52C29.2509 10.7947 29.3629 10.144 29.5869 9.568C29.8215 8.992 30.1362 8.50133 30.5309 8.096C30.9362 7.68 31.3842 7.36533 31.8749 7.152C32.3762 6.928 32.8935 6.816 33.4269 6.816C34.2482 6.816 34.9362 7.00267 35.4909 7.376C36.0455 7.73867 36.4615 8.24533 36.7389 8.896C37.0269 9.536 37.1709 10.272 37.1709 11.104C37.1709 11.3173 37.1602 11.5253 37.1389 11.728C37.1175 11.92 37.0909 12.0747 37.0589 12.192H31.5389C31.6029 12.672 31.7469 13.0773 31.9709 13.408C32.1949 13.7387 32.4829 13.9893 32.8349 14.16C33.1869 14.32 33.5869 14.4 34.0349 14.4C34.3975 14.4 34.7389 14.352 35.0589 14.256C35.3789 14.1493 35.7042 13.9947 36.0349 13.792L36.8349 15.232C36.3975 15.5307 35.9069 15.7707 35.3629 15.952C34.8189 16.1333 34.2695 16.224 33.7149 16.224ZM31.4909 10.608H35.1549C35.1549 10.0107 35.0162 9.536 34.7389 9.184C34.4722 8.82133 34.0455 8.64 33.4589 8.64C33.1495 8.64 32.8562 8.71467 32.5789 8.864C32.3015 9.00267 32.0669 9.22133 31.8749 9.52C31.6829 9.808 31.5549 10.1707 31.4909 10.608ZM45.2768 16V6.128H41.9488V4.144H50.9888V6.128H47.6448V16H45.2768ZM55.0393 16.224C54.2926 16.224 53.5886 16.0373 52.9273 15.664C52.2766 15.2907 51.7486 14.7573 51.3433 14.064C50.9379 13.36 50.7353 12.512 50.7353 11.52C50.7353 10.528 50.9379 9.68533 51.3433 8.992C51.7486 8.288 52.2766 7.74933 52.9273 7.376C53.5886 7.00267 54.2926 6.816 55.0393 6.816C55.6046 6.816 56.1433 6.92267 56.6553 7.136C57.1673 7.34933 57.6259 7.65867 58.0312 8.064C58.4366 8.45867 58.7566 8.94933 58.9913 9.536C59.2259 10.112 59.3433 10.7733 59.3433 11.52C59.3433 12.512 59.1406 13.36 58.7353 14.064C58.3299 14.7573 57.7966 15.2907 57.1353 15.664C56.4846 16.0373 55.7859 16.224 55.0393 16.224ZM55.0393 14.304C55.4446 14.304 55.7859 14.192 56.0633 13.968C56.3513 13.7333 56.5646 13.408 56.7033 12.992C56.8526 12.576 56.9273 12.0853 56.9273 11.52C56.9273 10.9547 56.8526 10.464 56.7033 10.048C56.5646 9.632 56.3513 9.312 56.0633 9.088C55.7859 8.85333 55.4446 8.736 55.0393 8.736C54.6339 8.736 54.2873 8.85333 53.9993 9.088C53.7219 9.312 53.5086 9.632 53.3593 10.048C53.2206 10.464 53.1513 10.9547 53.1513 11.52C53.1513 12.0853 53.2206 12.576 53.3593 12.992C53.5086 13.408 53.7219 13.7333 53.9993 13.968C54.2873 14.192 54.6339 14.304 55.0393 14.304ZM61.3109 19.44V7.04H63.2309L63.4069 7.968H63.4549C63.8282 7.648 64.2389 7.376 64.6869 7.152C65.1455 6.928 65.6149 6.816 66.0949 6.816C66.8309 6.816 67.4602 7.008 67.9829 7.392C68.5055 7.76533 68.9055 8.29333 69.1829 8.976C69.4709 9.648 69.6149 10.448 69.6149 11.376C69.6149 12.4 69.4335 13.2747 69.0709 14C68.7082 14.7253 68.2335 15.28 67.6469 15.664C67.0709 16.0373 66.4575 16.224 65.8069 16.224C65.4229 16.224 65.0389 16.1387 64.6549 15.968C64.2815 15.7973 63.9242 15.5573 63.5829 15.248L63.6629 16.704V19.44H61.3109ZM65.2949 14.288C65.6469 14.288 65.9669 14.1867 66.2549 13.984C66.5429 13.7707 66.7722 13.4507 66.9429 13.024C67.1135 12.5973 67.1989 12.0587 67.1989 11.408C67.1989 10.8427 67.1349 10.3627 67.0069 9.968C66.8789 9.56267 66.6869 9.25867 66.4309 9.056C66.1749 8.85333 65.8389 8.752 65.4229 8.752C65.1242 8.752 64.8309 8.82667 64.5429 8.976C64.2655 9.12533 63.9722 9.35467 63.6629 9.664V13.616C63.9509 13.872 64.2335 14.048 64.5109 14.144C64.7882 14.24 65.0495 14.288 65.2949 14.288Z" fill="#4FB7A6"/>
<path d="M27.039 63.3946C23.0156 63.8114 19.1458 64.486 15.2605 64.5466C11.3139 64.6072 8.83384 62.9399 9.47113 59.9463C9.63238 59.1884 10.0316 58.423 10.4923 57.7788C16.2894 49.7227 22.1096 41.674 27.9527 33.6482C29.4116 31.6474 30.8014 29.5557 32.5597 27.8353C34.1337 26.2893 35.3008 27.0168 36.3681 28.9721C37.9882 31.943 39.7773 34.9366 42.0577 37.4073C48.0391 43.887 54.3813 50.0485 60.4395 56.4601C61.2534 57.3241 61.8446 59.0369 61.5529 60.0827C61.2918 61.0225 59.7331 62.0986 58.6274 62.2426C54.0128 62.8338 49.3598 63.099 44.3228 63.5159C44.1692 69.2529 43.9082 74.8688 43.9543 80.4846C43.9619 81.7199 45.2519 82.887 45.6128 84.183C45.9813 85.4941 46.5495 87.4797 45.9199 88.1694C44.9831 89.185 43.0866 89.6245 41.5586 89.7306C38.7791 89.9277 36.0149 88.7151 33.3352 91.0114C31.1853 92.853 27.0774 89.2001 27.1004 85.6154C27.1388 78.6884 27.1695 71.7539 27.2003 64.827C27.2003 64.3874 27.1081 63.9479 27.0544 63.3946H27.039ZM37.6197 82.258C37.6197 78.3171 37.4892 74.5429 37.6581 70.7839C37.827 67.1006 38.1418 63.4173 38.6946 59.772C39.0018 57.7864 40.4299 56.6117 42.7104 56.6193C45.083 56.6268 47.4632 56.4222 50.3886 56.2782C44.914 50.1016 39.8387 44.3645 34.6021 38.4531C29.3425 44.9481 24.4131 51.0413 19.0613 57.6575C21.4416 57.0588 23.2306 56.642 25.0043 56.1645C29.7802 54.8762 31.9915 55.3233 33.2507 58.3093C33.8727 59.7796 33.9955 61.553 33.9418 63.1749C33.7652 68.4421 33.3352 73.7016 33.1432 78.9688C33.005 82.7658 33.389 83.0007 37.6274 82.258H37.6197Z" fill="#4FB7A6"/>
</svg>
