<svg width="40" height="40" viewBox="0 0 40 40" fill="none" xmlns="http://www.w3.org/2000/svg">
<g clip-path="url(#clip0_1_67)">
<path d="M39.6819 31.7495L30.5545 23.4507C30.1233 23.0581 29.5562 22.8486 28.9733 22.8666C28.3904 22.8846 27.8373 23.1287 27.4312 23.5473L22.0581 29.0731C20.7647 28.8261 18.1646 28.0155 15.4882 25.3458C12.8117 22.6671 12.0011 20.0603 11.7609 18.7759L17.2822 13.4006C17.7008 12.9945 17.9449 12.4414 17.9629 11.8585C17.9809 11.2756 17.7714 10.7085 17.3787 10.2773L9.08215 1.15228C8.68931 0.719734 8.14332 0.457361 7.56014 0.420886C6.97696 0.384412 6.40254 0.57671 5.95886 0.956939L1.08644 5.13551C0.698239 5.52511 0.466537 6.04364 0.435283 6.59274C0.401603 7.15407 -0.240569 20.451 10.0701 30.766C19.065 39.7586 30.3322 40.4165 33.4353 40.4165C33.8888 40.4165 34.1673 40.403 34.2414 40.3985C34.79 40.3661 35.3077 40.1337 35.6964 39.7451L39.8727 34.8705C40.2545 34.4283 40.4482 33.8543 40.4125 33.2712C40.3769 32.688 40.1146 32.142 39.6819 31.7495Z" fill="#0A1922"/>
</g>
<defs>
<clipPath id="clip0_1_67">
<rect width="40" height="40" fill="white"/>
</clipPath>
</defs>
</svg>
