<svg width="40" height="34" viewBox="0 0 40 34" fill="none" xmlns="http://www.w3.org/2000/svg">
<path fill-rule="evenodd" clip-rule="evenodd" d="M37.6 1H2.4C1.08 1 0 2.08 0 3.4V28.2C0 30.84 2.16 33 4.8 33H35.2C37.84 33 40 30.84 40 28.2V3.4C40 2.08 38.92 1 37.6 1ZM7.3 5.6C7.10039 5.42928 6.86911 5.29955 6.61936 5.21821C6.36962 5.13688 6.1063 5.10553 5.84444 5.12596C5.58258 5.14639 5.3273 5.21819 5.09319 5.33728C4.85908 5.45636 4.65072 5.62039 4.48 5.82C4.30928 6.01961 4.17955 6.25089 4.09821 6.50064C4.01688 6.75038 3.98553 7.0137 4.00596 7.27556C4.02639 7.53742 4.09819 7.7927 4.21728 8.02681C4.33636 8.26092 4.50039 8.46928 4.7 8.64L18.44 20.42C18.8756 20.7896 19.4287 20.9917 20 20.99C20.5715 20.9912 21.1247 20.7883 21.56 20.418L35.3 8.638C35.5107 8.47085 35.6856 8.26292 35.8141 8.02662C35.9427 7.79033 36.0222 7.53054 36.048 7.26279C36.0738 6.99504 36.0453 6.72485 35.9643 6.46836C35.8832 6.21188 35.7513 5.97438 35.5763 5.77007C35.4013 5.56577 35.187 5.39885 34.946 5.27932C34.705 5.15979 34.4424 5.09009 34.1739 5.0744C33.9054 5.05871 33.6364 5.09735 33.3832 5.188C33.1299 5.27866 32.8976 5.41946 32.7 5.602L20 16.488L7.3 5.6Z" fill="black"/>
</svg>
